<?xml version="1.0" encoding="UTF-8"?>
<svg version="1.1" xmlns="http://www.w3.org/2000/svg" width="1024" height="1024">
<path d="M0 0 C337.92 0 675.84 0 1024 0 C1024 337.92 1024 675.84 1024 1024 C686.08 1024 348.16 1024 0 1024 C0 686.08 0 348.16 0 0 Z " fill="#D2EFE8" transform="translate(0,0)"/>
<path d="M0 0 C1.50349058 -0.01125335 1.50349058 -0.01125335 3.03735471 -0.02273405 C6.40595915 -0.04411644 9.77421595 -0.04395035 13.1428833 -0.04379272 C15.5541132 -0.05440298 17.96533799 -0.06623248 20.3765564 -0.07919312 C26.93450908 -0.11002014 33.49237614 -0.12112673 40.05038357 -0.12683535 C44.14642571 -0.13058703 48.24244686 -0.13939542 52.33847809 -0.14933395 C63.68264153 -0.17627399 75.02678467 -0.19878277 86.37098312 -0.20121193 C87.4598022 -0.20144529 87.4598022 -0.20144529 88.57061763 -0.20168336 C90.04211187 -0.20197442 91.51360612 -0.20225979 92.98510036 -0.20253952 C94.08075663 -0.2027538 94.08075663 -0.2027538 95.19854736 -0.20297241 C96.29554348 -0.20318191 96.29554348 -0.20318191 97.41470113 -0.20339565 C109.26234747 -0.20653027 121.10962805 -0.2431123 132.95715365 -0.29460867 C145.12531401 -0.34707637 157.29329385 -0.37332466 169.46157002 -0.37276304 C176.29186414 -0.37301555 183.12173802 -0.38422673 189.95192719 -0.42393875 C196.37722323 -0.46110675 202.80189396 -0.46210868 209.22726059 -0.43876648 C211.58470452 -0.43590256 213.94219803 -0.44499078 216.29954147 -0.46694565 C219.52052159 -0.49508187 222.73853797 -0.47996209 225.95947266 -0.45410156 C227.35618576 -0.48161686 227.35618576 -0.48161686 228.78111529 -0.50968802 C234.96958407 -0.39743774 238.20249835 1.26255104 242.7509582 5.43543786 C245.59012525 9.21225417 245.27883524 13.28683419 245.14190674 17.84121704 C245.14307495 18.86636414 245.14424316 19.89151123 245.14544678 20.94772339 C245.1398944 24.31995415 245.07777306 27.68860217 245.01495361 31.06021118 C245.00002506 33.40431283 244.98864095 35.7484395 244.98065186 38.09257507 C244.95016705 44.24993305 244.87163233 50.4057713 244.78302002 56.56253052 C244.70105153 62.84995974 244.66461667 69.13763555 244.62432861 75.42544556 C244.53863718 87.75358571 244.40217192 100.0806 244.23370361 112.40786743 C242.78870123 112.89048688 241.34361721 113.37286192 239.89849854 113.85513306 C239.09377609 114.12378174 238.28905365 114.39243042 237.45994568 114.66921997 C235.1605512 115.43213876 232.85357583 116.16950832 230.54620361 116.90786743 C226.92956137 118.10706986 223.59497597 119.59795155 220.23370361 121.40786743 C220.23370361 122.06786743 220.23370361 122.72786743 220.23370361 123.40786743 C220.89370361 123.40786743 221.55370361 123.40786743 222.23370361 123.40786743 C222.23370361 124.06786743 222.23370361 124.72786743 222.23370361 125.40786743 C222.89370361 125.73786743 223.55370361 126.06786743 224.23370361 126.40786743 C223.24370361 126.40786743 222.25370361 126.40786743 221.23370361 126.40786743 C221.23370361 127.39786743 221.23370361 128.38786743 221.23370361 129.40786743 C226.18410205 128.43401856 230.65355414 127.28599561 235.31964111 125.36489868 C241.30769776 123.16175998 246.70560731 122.75213843 253.04620361 122.84536743 C254.09501709 122.85487427 255.14383057 122.8643811 256.22442627 122.87417603 C264.76343857 123.10232261 271.54698159 124.51769959 279.23370361 128.40786743 C280.0935083 128.80747681 280.95331299 129.20708618 281.83917236 129.61880493 C294.14066955 136.07269058 303.86666117 147.20974712 308.18292236 160.28286743 C312.42443176 175.63674761 311.43677312 190.21649884 304.23370361 204.40786743 C302.94475378 206.10909166 301.61988024 207.78488563 300.23370361 209.40786743 C299.52484467 210.71925647 298.83913909 212.0456376 298.23370361 213.40786743 C297.57370361 213.40786743 296.91370361 213.40786743 296.23370361 213.40786743 C295.84891846 214.29151978 295.84891846 214.29151978 295.45635986 215.19302368 C291.82054467 221.77930872 284.00024724 226.51173337 277.23370361 229.40786743 C276.24370361 229.40786743 275.25370361 229.40786743 274.23370361 229.40786743 C274.23370361 230.39786743 274.23370361 231.38786743 274.23370361 232.40786743 C263.87067692 238.45296634 249.66626905 237.313295 238.23370361 235.40786743 C236.76323025 239.31849967 236.76323025 239.31849967 236.23370361 243.40786743 C238.87370361 243.73786743 241.51370361 244.06786743 244.23370361 244.40786743 C244.33553548 251.79096633 244.40535019 259.17388255 244.45343018 266.55752563 C244.47348424 269.06670907 244.50073446 271.57584613 244.53546143 274.08486938 C244.58425115 277.70176676 244.60673543 281.31804354 244.62432861 284.93521118 C244.64497375 286.04806992 244.6656189 287.16092865 244.68688965 288.30751038 C244.6886687 294.55178213 244.61754465 301.51122732 240.23370361 306.40786743 C234.74396707 308.39305231 229.82270553 308.69072564 224.02259827 308.65510559 C222.66272019 308.65872721 222.66272019 308.65872721 221.27536982 308.662422 C218.24814203 308.66804163 215.22112689 308.65940853 212.19390869 308.65078735 C210.01845747 308.65186077 207.84300653 308.65380033 205.66755676 308.65653992 C199.76182981 308.66138568 193.85617849 308.65373278 187.95046067 308.64358687 C181.75383484 308.63478661 175.55721125 308.63656431 169.36058044 308.63694763 C158.27338452 308.6359509 147.18622093 308.62562323 136.09903529 308.61104558 C124.76231545 308.59634983 113.42562859 308.59271896 102.08889848 308.59341353 C89.26976737 308.59409259 76.45064841 308.58712537 63.63152099 308.57796693 C59.96042506 308.57584755 56.28933112 308.57512735 52.61823463 308.57472801 C46.81272044 308.57371298 41.00723243 308.56752321 35.20172691 308.55756187 C33.08638545 308.55467453 30.97104098 308.55340372 28.85569763 308.55398941 C22.31393441 308.55511387 15.77463921 308.51350398 9.23370361 308.40786743 C8.29797949 308.39451174 7.36225536 308.38115605 6.39817595 308.36739564 C3.6396194 308.31776842 0.88359993 308.23844594 -1.87391663 308.14878845 C-2.69870174 308.13524926 -3.52348685 308.12171008 -4.37326545 308.10776061 C-9.38635814 307.90189261 -12.12985148 307.17472425 -15.76629639 303.40786743 C-16.99329877 300.95386266 -16.89384962 299.36296291 -16.89772415 296.61825943 C-16.9015653 295.60082602 -16.90540644 294.58339261 -16.90936399 293.53512788 C-16.9084975 292.40888938 -16.90763102 291.28265088 -16.90673828 290.12228394 C-16.9097094 288.93241119 -16.91268053 287.74253845 -16.91574168 286.51660895 C-16.92293744 283.20343589 -16.9256022 279.89031465 -16.92633915 276.57713747 C-16.92818678 273.00782976 -16.93573269 269.43853337 -16.94247437 265.86923218 C-16.95607082 258.05928102 -16.96208459 250.24933499 -16.96648502 242.43937397 C-16.96924552 237.56444756 -16.97348254 232.68952315 -16.9779892 227.81459808 C-16.99018412 214.32248687 -17.00048264 200.83037726 -17.00386429 187.33826065 C-17.00408385 186.47429778 -17.00430342 185.61033491 -17.00452964 184.72019134 C-17.00474792 183.85413549 -17.0049662 182.98807963 -17.00519109 182.09577966 C-17.00563456 180.34075944 -17.00608112 178.58573921 -17.00653076 176.83071899 C-17.00675219 175.96016435 -17.00697362 175.0896097 -17.00720176 174.19267461 C-17.01114967 160.08687055 -17.02860248 145.98111815 -17.05189028 131.87533405 C-17.07559598 117.39978085 -17.0880658 102.92425357 -17.08923221 88.44868064 C-17.09014947 80.31853407 -17.09591445 72.18845478 -17.11405182 64.05832672 C-17.12944235 57.13494983 -17.13457953 50.21166101 -17.12631372 43.28827026 C-17.12240332 39.75538181 -17.12335556 36.22267077 -17.13737106 32.68980408 C-17.15242466 28.86025433 -17.14425484 25.03095513 -17.13378906 21.2013855 C-17.14184547 20.08406988 -17.14990187 18.96675427 -17.15820241 17.81558061 C-17.11600259 11.2333775 -16.6009237 6.73209873 -12.18918991 1.55835915 C-8.24845197 -0.31286891 -4.306546 -0.0181581 0 0 Z " fill="#CEEDE6" transform="translate(398.76629638671875,325.5921325683594)"/>
<path d="M0 0 C1.50349058 -0.01125335 1.50349058 -0.01125335 3.03735471 -0.02273405 C6.40595915 -0.04411644 9.77421595 -0.04395035 13.1428833 -0.04379272 C15.5541132 -0.05440298 17.96533799 -0.06623248 20.3765564 -0.07919312 C26.93450908 -0.11002014 33.49237614 -0.12112673 40.05038357 -0.12683535 C44.14642571 -0.13058703 48.24244686 -0.13939542 52.33847809 -0.14933395 C63.68264153 -0.17627399 75.02678467 -0.19878277 86.37098312 -0.20121193 C87.4598022 -0.20144529 87.4598022 -0.20144529 88.57061763 -0.20168336 C90.04211187 -0.20197442 91.51360612 -0.20225979 92.98510036 -0.20253952 C94.08075663 -0.2027538 94.08075663 -0.2027538 95.19854736 -0.20297241 C96.29554348 -0.20318191 96.29554348 -0.20318191 97.41470113 -0.20339565 C109.26234747 -0.20653027 121.10962805 -0.2431123 132.95715365 -0.29460867 C145.12531401 -0.34707637 157.29329385 -0.37332466 169.46157002 -0.37276304 C176.29186414 -0.37301555 183.12173802 -0.38422673 189.95192719 -0.42393875 C196.37722323 -0.46110675 202.80189396 -0.46210868 209.22726059 -0.43876648 C211.58470452 -0.43590256 213.94219803 -0.44499078 216.29954147 -0.46694565 C219.52052159 -0.49508187 222.73853797 -0.47996209 225.95947266 -0.45410156 C227.35618576 -0.48161686 227.35618576 -0.48161686 228.78111529 -0.50968802 C234.96958407 -0.39743774 238.20249835 1.26255104 242.7509582 5.43543786 C245.59012525 9.21225417 245.27883524 13.28683419 245.14190674 17.84121704 C245.14307495 18.86636414 245.14424316 19.89151123 245.14544678 20.94772339 C245.1398944 24.31995415 245.07777306 27.68860217 245.01495361 31.06021118 C245.00002506 33.40431283 244.98864095 35.7484395 244.98065186 38.09257507 C244.95016705 44.24993305 244.87163233 50.4057713 244.78302002 56.56253052 C244.70105153 62.84995974 244.66461667 69.13763555 244.62432861 75.42544556 C244.53863718 87.75358571 244.40217192 100.0806 244.23370361 112.40786743 C242.82647693 112.8814916 241.41884387 113.35390845 240.01104736 113.82583618 C239.2272168 114.08904663 238.44338623 114.35225708 237.63580322 114.6234436 C235.36650264 115.3645009 233.08691238 116.04904176 230.79620361 116.72036743 C224.68086663 118.74808443 219.13650954 122.14838606 214.06573486 126.09536743 C212.23370361 127.40786743 212.23370361 127.40786743 210.23370361 127.40786743 C210.23370361 110.24786743 210.23370361 93.08786743 210.23370361 75.40786743 C194.66176895 75.56600461 194.66176895 75.56600461 179.09039307 75.76821899 C177.13426587 75.77990444 175.17812894 75.7900966 173.22198486 75.79849243 C172.21115845 75.8189563 171.20033203 75.83942017 170.15887451 75.86050415 C162.99408572 75.86406032 162.99408572 75.86406032 159.17193604 73.57095337 C148.50652614 61.66825382 155.23370361 57.86422237 155.23370361 33.40786743 C109.69370361 33.40786743 64.15370361 33.40786743 17.23370361 33.40786743 C17.23370361 113.59786743 17.23370361 193.78786743 17.23370361 276.40786743 C80.92370361 276.40786743 144.61370361 276.40786743 210.23370361 276.40786743 C210.23370361 260.89786743 210.23370361 245.38786743 210.23370361 229.40786743 C213.20370361 231.38786743 216.17370361 233.36786743 219.23370361 235.40786743 C221.52968555 236.49087778 223.86847803 237.48583034 226.23370361 238.40786743 C227.18760986 238.82165649 228.14151611 239.23544556 229.12432861 239.66177368 C230.69440674 240.34046509 230.69440674 240.34046509 232.29620361 241.03286743 C233.27718018 241.45825806 234.25815674 241.88364868 235.26885986 242.32192993 C238.27111709 243.42157092 241.08201901 243.92400224 244.23370361 244.40786743 C244.33553548 251.79096633 244.40535019 259.17388255 244.45343018 266.55752563 C244.47348424 269.06670907 244.50073446 271.57584613 244.53546143 274.08486938 C244.58425115 277.70176676 244.60673543 281.31804354 244.62432861 284.93521118 C244.64497375 286.04806992 244.6656189 287.16092865 244.68688965 288.30751038 C244.6886687 294.55178213 244.61754465 301.51122732 240.23370361 306.40786743 C234.74396707 308.39305231 229.82270553 308.69072564 224.02259827 308.65510559 C222.66272019 308.65872721 222.66272019 308.65872721 221.27536982 308.662422 C218.24814203 308.66804163 215.22112689 308.65940853 212.19390869 308.65078735 C210.01845747 308.65186077 207.84300653 308.65380033 205.66755676 308.65653992 C199.76182981 308.66138568 193.85617849 308.65373278 187.95046067 308.64358687 C181.75383484 308.63478661 175.55721125 308.63656431 169.36058044 308.63694763 C158.27338452 308.6359509 147.18622093 308.62562323 136.09903529 308.61104558 C124.76231545 308.59634983 113.42562859 308.59271896 102.08889848 308.59341353 C89.26976737 308.59409259 76.45064841 308.58712537 63.63152099 308.57796693 C59.96042506 308.57584755 56.28933112 308.57512735 52.61823463 308.57472801 C46.81272044 308.57371298 41.00723243 308.56752321 35.20172691 308.55756187 C33.08638545 308.55467453 30.97104098 308.55340372 28.85569763 308.55398941 C22.31393441 308.55511387 15.77463921 308.51350398 9.23370361 308.40786743 C8.29797949 308.39451174 7.36225536 308.38115605 6.39817595 308.36739564 C3.6396194 308.31776842 0.88359993 308.23844594 -1.87391663 308.14878845 C-2.69870174 308.13524926 -3.52348685 308.12171008 -4.37326545 308.10776061 C-9.38635814 307.90189261 -12.12985148 307.17472425 -15.76629639 303.40786743 C-16.99329877 300.95386266 -16.89384962 299.36296291 -16.89772415 296.61825943 C-16.9015653 295.60082602 -16.90540644 294.58339261 -16.90936399 293.53512788 C-16.9084975 292.40888938 -16.90763102 291.28265088 -16.90673828 290.12228394 C-16.9097094 288.93241119 -16.91268053 287.74253845 -16.91574168 286.51660895 C-16.92293744 283.20343589 -16.9256022 279.89031465 -16.92633915 276.57713747 C-16.92818678 273.00782976 -16.93573269 269.43853337 -16.94247437 265.86923218 C-16.95607082 258.05928102 -16.96208459 250.24933499 -16.96648502 242.43937397 C-16.96924552 237.56444756 -16.97348254 232.68952315 -16.9779892 227.81459808 C-16.99018412 214.32248687 -17.00048264 200.83037726 -17.00386429 187.33826065 C-17.00408385 186.47429778 -17.00430342 185.61033491 -17.00452964 184.72019134 C-17.00474792 183.85413549 -17.0049662 182.98807963 -17.00519109 182.09577966 C-17.00563456 180.34075944 -17.00608112 178.58573921 -17.00653076 176.83071899 C-17.00675219 175.96016435 -17.00697362 175.0896097 -17.00720176 174.19267461 C-17.01114967 160.08687055 -17.02860248 145.98111815 -17.05189028 131.87533405 C-17.07559598 117.39978085 -17.0880658 102.92425357 -17.08923221 88.44868064 C-17.09014947 80.31853407 -17.09591445 72.18845478 -17.11405182 64.05832672 C-17.12944235 57.13494983 -17.13457953 50.21166101 -17.12631372 43.28827026 C-17.12240332 39.75538181 -17.12335556 36.22267077 -17.13737106 32.68980408 C-17.15242466 28.86025433 -17.14425484 25.03095513 -17.13378906 21.2013855 C-17.14184547 20.08406988 -17.14990187 18.96675427 -17.15820241 17.81558061 C-17.11600259 11.2333775 -16.6009237 6.73209873 -12.18918991 1.55835915 C-8.24845197 -0.31286891 -4.306546 -0.0181581 0 0 Z " fill="#29C7B0" transform="translate(398.76629638671875,325.5921325683594)"/>
<path d="M0 0 C1.04881348 0.00950684 2.09762695 0.01901367 3.17822266 0.02880859 C11.71723496 0.25695518 18.50077798 1.67233216 26.1875 5.5625 C27.04730469 5.96210938 27.90710938 6.36171875 28.79296875 6.7734375 C41.09446593 13.22732314 50.82045756 24.36437969 55.13671875 37.4375 C59.37822815 52.79138018 58.39056951 67.37113141 51.1875 81.5625 C49.89855017 83.26372423 48.57367663 84.9395182 47.1875 86.5625 C46.47864106 87.87388904 45.79293548 89.20027017 45.1875 90.5625 C44.5275 90.5625 43.8675 90.5625 43.1875 90.5625 C42.93097656 91.15160156 42.67445313 91.74070312 42.41015625 92.34765625 C38.77434105 98.93394129 30.95404363 103.66636594 24.1875 106.5625 C23.1975 106.5625 22.2075 106.5625 21.1875 106.5625 C21.1875 107.2225 21.1875 107.8825 21.1875 108.5625 C5.01454075 114.47943631 -11.54464846 111.64834905 -26.8125 104.5625 C-31.92405361 101.49895297 -36.09813408 97.49487667 -40.21484375 93.21875 C-41.61680007 91.76537719 -43.08512753 90.37664253 -44.5625 89 C-52.22001007 80.70436409 -55.01700088 65.42144667 -55.4375 54.4375 C-54.89167536 41.83927734 -50.91446738 30.24628006 -42.8125 20.5625 C-42.049375 19.53125 -41.28625 18.5 -40.5 17.4375 C-39.943125 16.81875 -39.38625 16.2 -38.8125 15.5625 C-38.1525 15.5625 -37.4925 15.5625 -36.8125 15.5625 C-36.8125 14.9025 -36.8125 14.2425 -36.8125 13.5625 C-34.73961954 11.99497872 -32.68539858 10.58214435 -30.5 9.1875 C-29.92443359 8.80078125 -29.34886719 8.4140625 -28.75585938 8.015625 C-19.6742691 2.16413548 -10.75173233 -0.15808816 0 0 Z " fill="#F08B43" transform="translate(651.8125,448.4375)"/>
<path d="M0 0 C2.74149635 1.14192694 4.47370708 2.44127323 6.64453125 4.4609375 C7.31871094 5.07839844 7.99289062 5.69585937 8.6875 6.33203125 C9.95880517 7.54720816 11.2134735 8.77987975 12.45703125 10.0234375 C12.46645086 15.33609569 8.87911211 18.22868039 5.39453125 21.7734375 C4.11712012 23.10670628 2.83977913 24.44004226 1.5625 25.7734375 C0.89138184 26.46695312 0.22026367 27.16046875 -0.47119141 27.875 C-3.25211085 30.75881937 -5.99873407 33.67404811 -8.74267578 36.59301758 C-10.10409455 38.04084218 -11.4683349 39.48601902 -12.83544922 40.9284668 C-15.81968202 44.08344656 -18.77091608 47.2489021 -21.6015625 50.54296875 C-22.05305664 51.06342773 -22.50455078 51.58388672 -22.96972656 52.12011719 C-24.13494866 53.47487967 -25.28311985 54.84425755 -26.4296875 56.21484375 C-28.54296875 58.0234375 -28.54296875 58.0234375 -30.82080078 58.46240234 C-34.70414907 57.83619066 -36.61538668 55.55656043 -39.2109375 52.80859375 C-39.73182449 52.27826035 -40.25271149 51.74792694 -40.78938293 51.20152283 C-42.44861373 49.50773867 -44.08983583 47.79772461 -45.73046875 46.0859375 C-47.38515626 44.38130441 -49.04333621 42.68017778 -50.70368958 40.98106384 C-51.73501955 39.92330776 -52.76240932 38.86169279 -53.78544617 37.7959137 C-56.3901313 35.05474089 -56.3901313 35.05474089 -59.54296875 33.0234375 C-59.89126789 29.39488827 -60.01310824 27.63595038 -57.75 24.6875 C-56.95980469 24.01460938 -56.16960938 23.34171875 -55.35546875 22.6484375 C-54.57816406 21.96007812 -53.80085937 21.27171875 -53 20.5625 C-50.15809343 18.78235503 -48.83111348 18.43911453 -45.54296875 19.0234375 C-43.69921875 20.4140625 -43.69921875 20.4140625 -42.04296875 22.2734375 C-41.44871094 22.90765625 -40.85445312 23.541875 -40.2421875 24.1953125 C-39.68144531 24.79859375 -39.12070312 25.401875 -38.54296875 26.0234375 C-35.49019852 29.08318601 -35.49019852 29.08318601 -31.54296875 30.1484375 C-29.03736013 28.73903265 -27.5680985 26.80574718 -25.8203125 24.55859375 C-24.54296875 23.0234375 -24.54296875 23.0234375 -22.16796875 21.1484375 C-17.52048601 17.38618957 -13.86196076 12.60870489 -10.046875 8.0234375 C-9.17120304 7.00206359 -8.29490459 5.98122647 -7.41796875 4.9609375 C-6.61101563 4.00058594 -5.8040625 3.04023438 -4.97265625 2.05078125 C-2.54296875 0.0234375 -2.54296875 0.0234375 0 0 Z " fill="#FAF8F3" transform="translate(677.54296875,472.9765625)"/>
<path d="M0 0 C3.30190487 1.10063496 3.93053599 1.83265481 6.07055664 4.44384766 C10.40070965 9.54343582 15.11233765 14.20134027 19.87109375 18.8984375 C21.27991087 20.29784809 22.68872241 21.69726436 24.09719181 23.09702492 C27.54032995 26.51733438 30.98907257 29.9319775 34.44018555 33.34423828 C36.39080537 35.27331278 38.33877422 37.20499396 40.28395081 39.13955688 C42.11040918 40.95563942 43.94098873 42.76758815 45.77598572 44.57504272 C46.59426346 45.38994171 47.4125412 46.2048407 48.25561523 47.04443359 C48.98062729 47.76198822 49.70563934 48.47954285 50.45262146 49.21884155 C52 51 52 51 52 53 C45.23743488 53.10138675 38.47506561 53.17145971 31.71191406 53.21972656 C29.41105831 53.23984688 27.11025371 53.26714634 24.80957031 53.30175781 C21.50312683 53.35025612 18.19735915 53.37296478 14.890625 53.390625 C13.86132874 53.41127014 12.83203247 53.43191528 11.77154541 53.45318604 C7.83837651 53.45442296 4.88855388 53.44493029 1.34375 51.66992188 C-0.88816644 47.23528558 -0.48660269 42.77743445 -0.390625 37.890625 C-0.38496521 36.80867859 -0.37930542 35.72673218 -0.37347412 34.61199951 C-0.35108999 31.15754893 -0.30088791 27.70413689 -0.25 24.25 C-0.22993772 21.90756707 -0.21168648 19.56511787 -0.1953125 17.22265625 C-0.15121855 11.4814167 -0.08428555 5.74078255 0 0 Z " fill="#D0F0E9" transform="translate(562,340)"/>
<path d="M0 0 C2.80597777 1.39473601 5.54049541 2.86228908 8.25390625 4.4296875 C11.10941312 6.06256625 14.05786303 7.52893151 17 9 C17 16.26 17 23.52 17 31 C0.546875 39.31696429 0.546875 39.31696429 -5 39 C-5 38.34 -5 37.68 -5 37 C-5.78375 36.938125 -6.5675 36.87625 -7.375 36.8125 C-12.36341891 35.69440611 -16.50651748 33.38021104 -21 31 C-22.33224129 30.3311537 -23.66540238 29.66413209 -25 29 C-25.02887814 25.52085059 -25.04675687 22.04173169 -25.0625 18.5625 C-25.07087891 17.56927734 -25.07925781 16.57605469 -25.08789062 15.55273438 C-25.09111328 14.60849609 -25.09433594 13.66425781 -25.09765625 12.69140625 C-25.10289307 11.81685791 -25.10812988 10.94230957 -25.11352539 10.04125977 C-25 8 -25 8 -24 7 C-22.33382885 6.95936168 -20.66611905 6.957279 -19 7 C-19 6.34 -19 5.68 -19 5 C-6.19643717 -2.25324988 -6.19643717 -2.25324988 0 0 Z " fill="#F4FAFA" transform="translate(463,944)"/>
<path d="M0 0 C0.33 0 0.66 0 1 0 C1.00135653 0.61460801 1.00271306 1.22921602 1.00411069 1.86244851 C1.08470266 38.2622805 1.17563327 74.66207295 1.28005161 111.06184467 C1.29257098 115.42916902 1.30500368 119.79649361 1.31738281 124.16381836 C1.31984881 125.03330033 1.3223148 125.90278229 1.32485552 126.7986122 C1.36461521 140.89036941 1.39734832 154.98213467 1.42749982 169.07391534 C1.4585774 183.52568268 1.49717086 197.97741574 1.54279006 212.42914456 C1.57071739 221.35176871 1.59273195 230.2743677 1.60726251 239.19702389 C1.61777769 245.30967938 1.63557133 251.42228622 1.65916704 257.53490511 C1.67257766 261.06533015 1.68270397 264.5956868 1.68421364 268.12613869 C1.68593149 271.94807623 1.70293748 275.76985629 1.7215271 279.5917511 C1.71959237 280.71527853 1.71765763 281.83880596 1.71566427 282.99637967 C1.72312976 284.01602093 1.73059525 285.03566219 1.73828697 286.08620167 C1.74056529 286.96905144 1.74284362 287.8519012 1.74519098 288.76150399 C1.85967921 291.28464123 1.85967921 291.28464123 4 294 C6.76498113 294.92166038 8.38520929 295.12448894 11.23387146 295.12304783 C12.10187661 295.12503888 12.96988176 295.12702993 13.8641901 295.12908131 C14.8183604 295.12616847 15.77253069 295.12325563 16.75561523 295.12025452 C18.27536658 295.12153615 18.27536658 295.12153615 19.82581997 295.12284368 C23.23676228 295.12449695 26.64765593 295.11897952 30.05859375 295.11352539 C32.49748737 295.11324345 34.93638108 295.11340138 37.37527466 295.1139679 C42.63488394 295.11419597 47.89447795 295.11135044 53.15408325 295.10573006 C60.76188488 295.09760597 68.36968052 295.09499886 75.97748601 295.09374207 C88.3245123 295.09155237 100.67153199 295.08489514 113.01855469 295.07543945 C125.00618456 295.06626856 136.99381264 295.0591856 148.98144531 295.05493164 C150.0888811 295.05453756 150.0888811 295.05453756 151.21868932 295.05413551 C154.9228537 295.05283036 158.62701808 295.05156661 162.33118248 295.05032361 C190.93272912 295.04067727 219.53426881 295.02510884 248.1358099 295.0046621 C249.00381505 295.0040454 249.8718202 295.0034287 250.76612854 295.00279331 C251.5167283 295.00225124 252.26732805 295.00170917 253.04067326 295.00115067 C254.69378193 295.00017983 256.34689104 295 258 295 C255.53540315 297.98345934 253.78983874 298.47244829 250 299 C247.00925032 299.13885548 244.02294704 299.13490163 241.02940369 299.12698364 C239.67208888 299.12932363 239.67208888 299.12932363 238.28735358 299.13171089 C235.25397112 299.13570055 232.22063869 299.13253891 229.18725586 299.12939453 C227.01209992 299.13074961 224.83694421 299.13253015 222.66178894 299.13470459 C216.7477019 299.13927022 210.83363228 299.13749184 204.91954494 299.1343255 C198.71756745 299.13179261 192.51559144 299.13414249 186.31361389 299.13571167 C175.2133343 299.13764938 164.11306154 299.13453753 153.0127833 299.12945233 C141.66248045 299.12441283 130.3121951 299.12698282 118.96189207 299.1321975 C108.62185997 299.1367562 98.28183296 299.1373651 87.94180018 299.13475883 C81.77641781 299.13320841 75.61104339 299.13296772 69.44566154 299.13629532 C63.63196976 299.13921343 57.81829955 299.13712698 52.00461006 299.13140106 C49.88604391 299.13009345 47.7674759 299.13043295 45.64891052 299.13266373 C39.09819279 299.13891781 32.54994702 299.10266798 26 299 C25.06383575 298.98686437 24.12767149 298.97372874 23.16313863 298.96019506 C20.40434977 298.91087704 17.64813594 298.83166762 14.89039612 298.74191284 C14.06573064 298.72831384 13.24106516 298.71471483 12.39140981 298.70070374 C7.37911564 298.49427987 4.63593958 297.76598839 1 294 C-0.22992855 291.5401429 -0.12422667 289.94505322 -0.12304783 287.19363213 C-0.12503888 286.17249852 -0.12702993 285.15136492 -0.12908131 284.09928787 C-0.12616847 282.96895665 -0.12325563 281.83862543 -0.12025452 280.67404175 C-0.12110894 279.47993561 -0.12196337 278.28582947 -0.12284368 277.0555383 C-0.12421039 273.73077567 -0.12106849 270.40607136 -0.11606562 267.08131576 C-0.11176013 263.49985868 -0.11320762 259.91840351 -0.1139679 256.33694458 C-0.11449307 250.12840215 -0.11134697 243.91987021 -0.10573006 237.71133041 C-0.09761415 228.73474757 -0.09499974 219.7581698 -0.09374207 210.78158368 C-0.09155169 196.21880682 -0.08489199 181.65603555 -0.07543945 167.09326172 C-0.06626497 152.94417346 -0.05918431 138.79508672 -0.05493164 124.64599609 C-0.05466892 123.77431883 -0.05440619 122.90264157 -0.05413551 122.00454985 C-0.0528305 117.63174232 -0.05156679 113.25893478 -0.05032361 108.88612723 C-0.03995144 72.59074754 -0.02233351 36.2953742 0 0 Z " fill="#78D5C7" transform="translate(382,335)"/>
<path d="M0 0 C2.31 0 4.62 0 7 0 C7.33 0.99 7.66 1.98 8 3 C8.474375 2.505 8.94875 2.01 9.4375 1.5 C13.23843517 -0.72493766 16.70178266 -0.81799984 21 0 C24.06881816 1.71904752 26.40357084 3.80714167 28 7 C28.14851844 8.93359586 28.22130833 10.87342097 28.25 12.8125 C28.27578125 13.85019531 28.3015625 14.88789062 28.328125 15.95703125 C27.8385756 20.49701912 25.89511014 23.0537407 22.8125 26.3125 C19.17921274 28.49247236 16.14686325 28.87178375 12 28 C10.35 27.01 8.7 26.02 7 25 C7 28.96 7 32.92 7 37 C4.69 37 2.38 37 0 37 C0 24.79 0 12.58 0 0 Z " fill="#25393F" transform="translate(544,702)"/>
<path d="M0 0 C2.64 0 5.28 0 8 0 C8.33 3.96 8.66 7.92 9 12 C9.66 11.34 10.32 10.68 11 10 C15.31665747 9.34698895 19.02908285 9.5549963 23 11.375 C25 13 25 13 26 15 C26.08449628 16.7404417 26.10723024 18.48409722 26.09765625 20.2265625 C26.09443359 21.2578125 26.09121094 22.2890625 26.08789062 23.3515625 C26.07951172 24.43179688 26.07113281 25.51203125 26.0625 26.625 C26.05798828 27.71296875 26.05347656 28.8009375 26.04882812 29.921875 C26.03701776 32.61463789 26.02054778 35.30729188 26 38 C23.66705225 38.04241723 21.33297433 38.04092937 19 38 C17.48937307 36.48937307 17.80467543 35.10608711 17.71875 33 C17.68136719 32.195625 17.64398438 31.39125 17.60546875 30.5625 C17.53515625 28.85416667 17.46484375 27.14583333 17.39453125 25.4375 C17.35714844 24.633125 17.31976563 23.82875 17.28125 23 C17.25095703 22.2575 17.22066406 21.515 17.18945312 20.75 C17.18207587 18.97311145 17.18207587 18.97311145 16 18 C13.54207971 17.66656449 13.54207971 17.66656449 11 18 C9.0243438 20.96348429 8.73623141 21.68020373 8.5859375 25.01171875 C8.52792969 26.14770508 8.52792969 26.14770508 8.46875 27.30664062 C8.42234375 28.48516602 8.42234375 28.48516602 8.375 29.6875 C8.31699219 30.88342773 8.31699219 30.88342773 8.2578125 32.10351562 C8.16367506 34.06863475 8.08075368 36.0342854 8 38 C5.36 38 2.72 38 0 38 C0 25.46 0 12.92 0 0 Z " fill="#2A3F43" transform="translate(398,692)"/>
<path d="M0 0 C-0.33 1.98 -0.66 3.96 -1 6 C-1.99 6.33 -2.98 6.66 -4 7 C-4.66 6.67 -5.32 6.34 -6 6 C-7.70702735 5.93003986 -9.41668003 5.91559846 -11.125 5.9375 C-12.03507812 5.94652344 -12.94515625 5.95554687 -13.8828125 5.96484375 C-14.93082031 5.98224609 -14.93082031 5.98224609 -16 6 C-16 7.65 -16 9.3 -16 11 C-15.26394531 11.18175781 -14.52789062 11.36351562 -13.76953125 11.55078125 C-3.73670098 14.13519592 -3.73670098 14.13519592 0 17 C1.74476571 20.48953142 1.57489133 24.19294187 1 28 C-0.58977484 31.07780409 -2.63490606 33.34098913 -5.8125 34.875 C-6.534375 34.91625 -7.25625 34.9575 -8 35 C-9.2375 35.0825 -10.475 35.165 -11.75 35.25 C-17.02451016 35.19073584 -22.19707253 33.80292747 -26 30 C-25.60467975 27.54901444 -24.78698574 25.36095721 -24 23 C-21.50638429 24.20381448 -19.31856917 25.45428722 -17 27 C-14.71351152 27.24107326 -14.71351152 27.24107326 -12.3125 27.125 C-11.50425781 27.10695313 -10.69601562 27.08890625 -9.86328125 27.0703125 C-9.24839844 27.04710937 -8.63351562 27.02390625 -8 27 C-7.67 25.35 -7.34 23.7 -7 22 C-7.73605469 21.82984375 -8.47210938 21.6596875 -9.23046875 21.484375 C-19.09580973 19.03432995 -19.09580973 19.03432995 -23 15 C-24.88086365 11.2382727 -24.62889679 7.08782914 -24 3 C-18.65826191 -4.63105441 -7.79817678 -3.61591437 0 0 Z " fill="#253A3F" transform="translate(391,695)"/>
<path d="M0 0 C2.26071851 1.45448636 3.78615896 2.74809916 4.99609375 5.16796875 C5.08035469 6.83542935 5.10334518 8.50622062 5.09375 10.17578125 C5.09052734 11.16191406 5.08730469 12.14804687 5.08398438 13.1640625 C5.07560547 14.19660156 5.06722656 15.22914063 5.05859375 16.29296875 C5.05408203 17.33324219 5.04957031 18.37351562 5.04492188 19.4453125 C5.03311327 22.01958837 5.0166445 24.59375021 4.99609375 27.16796875 C-1.62890625 27.29296875 -1.62890625 27.29296875 -5.00390625 26.16796875 C-5.99390625 26.49796875 -6.98390625 26.82796875 -8.00390625 27.16796875 C-14.98982174 27.84402509 -14.98982174 27.84402509 -19.00390625 25.16796875 C-21.76225798 21.03044116 -21.71568185 19.07131175 -21.00390625 14.16796875 C-18.57242852 11.50835237 -17.17312392 11.18232545 -13.55078125 10.875 C-12.2978125 10.90980469 -11.04484375 10.94460938 -9.75390625 10.98046875 C-8.490625 11.00753906 -7.22734375 11.03460937 -5.92578125 11.0625 C-4.9615625 11.09730469 -3.99734375 11.13210938 -3.00390625 11.16796875 C-3.66390625 9.84796875 -4.32390625 8.52796875 -5.00390625 7.16796875 C-9.52008224 7.09142339 -13.59475842 7.06568179 -18.00390625 8.16796875 C-20.00390625 5.16796875 -20.00390625 5.16796875 -20.00390625 2.16796875 C-13.87884659 -1.09872974 -6.68442482 -2.77540446 0 0 Z " fill="#31464A" transform="translate(598.00390625,702.83203125)"/>
<path d="M0 0 C1.59443404 0.45229864 3.16498726 0.987742 4.7265625 1.54296875 C4.15071818 3.92860952 3.50428655 6.20979659 2.7265625 8.54296875 C-1.8934375 7.88296875 -6.5134375 7.22296875 -11.2734375 6.54296875 C-10.05510122 12.48620312 -10.05510122 12.48620312 -6.8125 13.86328125 C-5.37003906 14.26160156 -5.37003906 14.26160156 -3.8984375 14.66796875 C0.37913811 15.87860336 2.95055125 16.98117241 5.7265625 20.54296875 C6.52567703 23.62369302 6.38122843 26.43607957 5.7265625 29.54296875 C3.05270823 32.93948634 -0.03719318 36.20137548 -4.47265625 36.87890625 C-10.31269888 36.97058667 -15.64965446 36.4544719 -20.2734375 32.54296875 C-21.30992856 29.86274944 -21.45751123 28.98474571 -20.3359375 26.29296875 C-19.9853125 25.71546875 -19.6346875 25.13796875 -19.2734375 24.54296875 C-16.301499 25.66748602 -13.93903063 26.76590666 -11.2734375 28.54296875 C-8.98694902 28.78404201 -8.98694902 28.78404201 -6.5859375 28.66796875 C-5.77769531 28.64992188 -4.96945312 28.631875 -4.13671875 28.61328125 C-3.52183594 28.59007812 -2.90695312 28.566875 -2.2734375 28.54296875 C-2.2734375 27.22296875 -2.2734375 25.90296875 -2.2734375 24.54296875 C-3.16546875 24.2284375 -4.0575 23.91390625 -4.9765625 23.58984375 C-6.14703125 23.161875 -7.3175 22.73390625 -8.5234375 22.29296875 C-9.68359375 21.8753125 -10.84375 21.45765625 -12.0390625 21.02734375 C-15.27090222 19.54413228 -17.08919918 18.32387705 -19.2734375 15.54296875 C-19.8024062 10.78225041 -19.25591444 6.90441802 -17.2734375 2.54296875 C-12.48830425 -1.98524459 -6.13719318 -1.23376564 0 0 Z " fill="#273C40" transform="translate(532.2734375,693.45703125)"/>
<path d="M0 0 C4.15054032 2.38045695 7.34815272 5.45741998 9 10 C9 12.31 9 14.62 9 17 C2.73 17 -3.54 17 -10 17 C-9.34 17.99 -8.68 18.98 -8 20 C-4.72495976 20.24259557 -1.92571863 20.25714406 1.25 19.375 C1.8275 19.25125 2.405 19.1275 3 19 C3.99 19.66 4.98 20.32 6 21 C6 21.99 6 22.98 6 24 C0.65190036 27.56539976 -2.55451624 28.81847413 -9 28 C-13.79765866 25.60117067 -16.565249 22.77585774 -19 18 C-19.47452968 13.49196808 -19.31772086 9.93004841 -17 6 C-12.32251555 0.27246803 -7.3140572 -1.78162932 0 0 Z " fill="#364B50" transform="translate(655,702)"/>
<path d="M0 0 C3.97654007 2.27844999 6.54330193 4.62990579 8 9 C8 11.64 8 14.28 8 17 C1.73 17 -4.54 17 -11 17 C-10.34 17.99 -9.68 18.98 -9 20 C-4.82339427 20.26518132 -1.95659266 20.31886422 2 19 C3.32 20.32 4.64 21.64 6 23 C1.99445145 27.43471447 -0.06274405 27.87699962 -5.9375 28.25 C-9.77373934 28.1717094 -12.01585312 27.56968203 -15 25 C-18.40850028 20.39391855 -19.67056264 16.88992314 -19.38671875 11.14453125 C-18.58481017 6.69758366 -16.16783519 4.03044282 -12.875 1.125 C-8.52856838 -0.57577759 -4.5910364 -0.89964321 0 0 Z " fill="#2B4043" transform="translate(448,702)"/>
<path d="M0 0 C3.43403788 2.00011167 6.21175747 4.42351494 8 8 C8 10.97 8 13.94 8 17 C2.06 17 -3.88 17 -10 17 C-9.34 17.99 -8.68 18.98 -8 20 C-4.72495976 20.24259557 -1.92571863 20.25714406 1.25 19.375 C1.8275 19.25125 2.405 19.1275 3 19 C3.99 19.66 4.98 20.32 6 21 C5.875 22.8125 5.875 22.8125 5 25 C0.53031615 28.05246702 -3.72617748 28.94739327 -9 28 C-13.36339712 25.77713731 -16.23431511 23.61039944 -18 19 C-18.71615513 14.33414082 -19.12645832 9.97044085 -16.72265625 5.765625 C-11.87836655 0.03301812 -7.46510564 -1.21447241 0 0 Z " fill="#1E333A" transform="translate(478,702)"/>
<path d="M0 0 C0.95153196 0.00018436 1.90306392 0.00036873 2.88343018 0.00055867 C3.88601623 -0.00311801 4.88860227 -0.0067947 5.92156971 -0.0105828 C9.30873849 -0.0216683 12.69587666 -0.02547168 16.08306092 -0.02927226 C18.50033386 -0.03553319 20.91760582 -0.04217966 23.33487672 -0.04918498 C30.60928864 -0.06844927 37.88369806 -0.07901859 45.15812775 -0.08791277 C48.58104533 -0.09229234 52.00396134 -0.09766002 55.42687768 -0.10290164 C66.80095348 -0.1199165 78.1750283 -0.13441142 89.54911488 -0.14165038 C92.50248753 -0.14356038 95.45586018 -0.14548069 98.4092328 -0.14743632 C99.51034753 -0.14816193 99.51034753 -0.14816193 100.63370701 -0.1489022 C112.52939797 -0.15720523 124.42498846 -0.18254555 136.32063553 -0.215017 C148.52482247 -0.2480599 160.72895831 -0.26609665 172.93319023 -0.26929462 C179.78899977 -0.27146236 186.64466282 -0.28024921 193.50042886 -0.30575579 C199.94770014 -0.32968666 206.39477901 -0.33330587 212.8420884 -0.32299441 C215.21248979 -0.32249676 217.5829038 -0.328884 219.95326585 -0.34255046 C223.18169207 -0.3601271 226.40915534 -0.35323313 229.63758057 -0.3400175 C231.05484027 -0.35647137 231.05484027 -0.35647137 232.50073147 -0.37325764 C238.86172786 -0.31010205 238.86172786 -0.31010205 242.06431836 2.17821389 C242.52191698 2.82815411 242.9795156 3.47809432 243.45098084 4.14772969 C242.66428891 3.98562631 241.87759698 3.82352292 241.06706589 3.65650731 C236.54970691 3.02092184 232.14940764 3.00299179 227.59362 3.0072878 C226.1118427 3.00283112 226.1118427 3.00283112 224.6001305 2.9982844 C221.29291835 2.98961858 217.9857425 2.98809098 214.6785199 2.98659688 C212.3065251 2.98196748 209.93453104 2.97694266 207.56253785 2.97155172 C201.1228829 2.95844387 194.68323489 2.95195004 188.24356908 2.94754106 C184.22362164 2.94477551 180.2036766 2.94053782 176.18373078 2.93603688 C165.05392962 2.92385313 153.92413036 2.91354906 142.79432267 2.91016179 C142.08284221 2.90994223 141.37136174 2.90972266 140.63832127 2.90949644 C139.92515832 2.90927816 139.21199537 2.90905989 138.47722143 2.90883499 C137.03211389 2.90839153 135.58700635 2.90794497 134.14189881 2.90749532 C133.42507828 2.90727389 132.70825775 2.90705246 131.96971539 2.90682432 C120.33490477 2.90286979 108.70015654 2.88539188 97.06537005 2.8621358 C85.12093687 2.83845307 73.17653507 2.82596151 61.23207802 2.82479388 C54.52510631 2.82387587 47.8182161 2.81809131 41.11126679 2.79997426 C34.81085857 2.78357679 28.51060566 2.7812973 22.2101838 2.79011327 C19.89215718 2.79088793 17.57412248 2.786485 15.25611657 2.77665502 C12.10402464 2.76406641 8.95249392 2.76974033 5.80040711 2.78023702 C4.4087069 2.76815241 4.4087069 2.76815241 2.98889154 2.75582367 C1.72922119 2.76570844 1.72922119 2.76570844 0.44410294 2.7757929 C-0.64803044 2.77489726 -0.64803044 2.77489726 -1.76222712 2.77398354 C-3.9684505 3.01761742 -3.9684505 3.01761742 -5.54901916 6.14772969 C-5.54901916 4.82772969 -5.54901916 3.50772969 -5.54901916 2.14772969 C-6.20901916 1.81772969 -6.86901916 1.48772969 -7.54901916 1.14772969 C-5.59443392 -0.80685554 -2.60315048 0.01354963 0 0 Z " fill="#5FCEBA" transform="translate(395.5490191578865,325.8522703051567)"/>
<path d="M0 0 C5.4939759 2.69879518 5.4939759 2.69879518 6.875 6.25 C6.91625 6.8275 6.9575 7.405 7 8 C4 10 4 10 0 10 C0 9.34 0 8.68 0 8 C-4.0100934 7.82135369 -4.0100934 7.82135369 -8 8 C-10.37198957 9.93602047 -10.37198957 9.93602047 -10.25 13.4375 C-10.28809647 17.10420618 -10.28809647 17.10420618 -8 20 C-3.59383058 20.40797865 -0.85012947 20.06256936 3 18 C3.99 18.33 4.98 18.66 6 19 C6.6875 21.0625 6.6875 21.0625 7 23 C1.24351778 26.96557664 -2.93375905 28.74819022 -10 28 C-14.5825842 26.12530646 -16.86260117 23.4331235 -19 19 C-19.74564414 13.87087211 -19.88630119 9.57564656 -17.3125 5 C-11.71019485 0.15476311 -7.38186506 -1.07308262 0 0 Z " fill="#2B4044" transform="translate(627,702)"/>
<path d="M0 0 C2.31 0 4.62 0 7 0 C7 0.66 7 1.32 7 2 C9.64 2.33 12.28 2.66 15 3 C15 3.66 15 4.32 15 5 C16.98 5 18.96 5 21 5 C21 5.99 21 6.98 21 8 C20.01 8.33 19.02 8.66 18 9 C17.67 11.31 17.34 13.62 17 16 C18.98 16 20.96 16 23 16 C23 11.38 23 6.76 23 2 C24.65 2 26.3 2 28 2 C28 6.62 28 11.24 28 16 C27.01 16.33 26.02 16.66 25 17 C25 17.66 25 18.32 25 19 C20.75218012 21.12390994 16.67507236 21.73182532 12 21 C9.84005171 20.13366865 7.87446898 19.13424968 5.859375 17.97265625 C3.73038854 16.76629964 3.73038854 16.76629964 0 16 C0 10.72 0 5.44 0 0 Z " fill="#CFE9E4" transform="translate(445,952)"/>
<path d="M0 0 C7.61406844 -0.76140684 7.61406844 -0.76140684 10.8984375 1.04296875 C13.03929768 2.82353782 14.74757112 4.49514224 16 7 C16.14851844 8.93359586 16.22130833 10.87342097 16.25 12.8125 C16.27578125 13.85019531 16.3015625 14.88789062 16.328125 15.95703125 C15.96101749 19.36151636 14.9499248 21.22392285 13 24 C12.34 23.67 11.68 23.34 11 23 C11 22.34 11 21.68 11 21 C10.01 21.33 9.02 21.66 8 22 C8 21.34 8 20.68 8 20 C7.38511719 20.10699219 6.77023437 20.21398437 6.13671875 20.32421875 C5.32847656 20.44410156 4.52023437 20.56398438 3.6875 20.6875 C2.88699219 20.81511719 2.08648438 20.94273437 1.26171875 21.07421875 C-1 21 -1 21 -2.76953125 19.859375 C-4.43775329 17.33850614 -4.39946535 15.56765999 -4.375 12.5625 C-4.38273438 11.61503906 -4.39046875 10.66757812 -4.3984375 9.69140625 C-3.94168678 6.60609988 -2.97215852 5.35758037 -1 3 C-0.67 2.01 -0.34 1.02 0 0 Z " fill="#263B40" transform="translate(556,702)"/>
<path d="M0 0 C1.04590805 0.00222061 2.0918161 0.00444122 3.16941833 0.00672913 C4.35056717 0.00680466 5.531716 0.00688019 6.74865723 0.00695801 C8.03404892 0.01211929 9.31944061 0.01728058 10.64378357 0.02259827 C12.60601112 0.02472069 12.60601112 0.02472069 14.60787964 0.02688599 C18.09150591 0.03071042 21.57509071 0.04054005 25.05870056 0.05158997 C28.6111444 0.06180569 32.16359491 0.06638395 35.71604919 0.07142639 C42.69067564 0.0821624 49.66527449 0.09923792 56.63987732 0.12025452 C57.02206499 1.77640109 57.35382834 3.44482476 57.63987732 5.12025452 C56.63987732 6.12025452 56.63987732 6.12025452 54.27975464 6.24050903 C53.23384659 6.23828842 52.18793854 6.23606781 51.1103363 6.23377991 C49.92918747 6.23370438 48.74803864 6.23362885 47.53109741 6.23355103 C46.24570572 6.22838974 44.96031403 6.22322845 43.63597107 6.21791077 C42.32781937 6.21649582 41.01966766 6.21508087 39.671875 6.21362305 C36.18824873 6.20979861 32.70466393 6.19996898 29.22105408 6.18891907 C25.66861024 6.17870334 22.11615973 6.17412508 18.56370544 6.16908264 C11.589079 6.15834664 4.61448015 6.14127111 -2.36012268 6.12025452 C-2.74231035 4.46410794 -3.0740737 2.79568427 -3.36012268 1.12025452 C-2.36012268 0.12025452 -2.36012268 0.12025452 0 0 Z " fill="#20353A" transform="translate(518.3601226806641,484.87974548339844)"/>
<path d="M0 0 C1.73200905 -0.00956978 1.73200905 -0.00956978 3.49900818 -0.01933289 C4.75625198 -0.02044571 6.01349579 -0.02155853 7.30883789 -0.02270508 C8.5900502 -0.02603348 9.87126251 -0.02936188 11.19129944 -0.03279114 C13.90748944 -0.03878825 16.62364759 -0.04063045 19.33984375 -0.04003906 C22.82490006 -0.03993742 26.30975269 -0.05358849 29.7947607 -0.07081127 C33.11195647 -0.08458699 36.42911384 -0.08401957 39.74633789 -0.08520508 C41.00155746 -0.09239059 42.25677704 -0.09957611 43.55003357 -0.10697937 C45.28677086 -0.10236443 45.28677086 -0.10236443 47.05859375 -0.09765625 C48.59295326 -0.09979378 48.59295326 -0.09979378 50.15830994 -0.10197449 C52.59399414 0.14526367 52.59399414 0.14526367 54.59399414 2.14526367 C54.26399414 3.46526367 53.93399414 4.78526367 53.59399414 6.14526367 C34.12399414 6.14526367 14.65399414 6.14526367 -5.40600586 6.14526367 C-5.73600586 4.49526367 -6.06600586 2.84526367 -6.40600586 1.14526367 C-4.67785104 -0.58289115 -2.35504347 0.00878276 0 0 Z " fill="#2D4245" transform="translate(521.406005859375,451.854736328125)"/>
<path d="M0 0 C1.04590805 0.00222061 2.0918161 0.00444122 3.16941833 0.00672913 C4.35056717 0.00680466 5.531716 0.00688019 6.74865723 0.00695801 C8.03404892 0.01211929 9.31944061 0.01728058 10.64378357 0.02259827 C12.60601112 0.02472069 12.60601112 0.02472069 14.60787964 0.02688599 C18.09150591 0.03071042 21.57509071 0.04054005 25.05870056 0.05158997 C28.6111444 0.06180569 32.16359491 0.06638395 35.71604919 0.07142639 C42.69067564 0.0821624 49.66527449 0.09923792 56.63987732 0.12025452 C57.26487732 1.99525452 57.26487732 1.99525452 57.63987732 4.12025452 C55.63987732 6.12025452 55.63987732 6.12025452 53.19746399 6.36076355 C51.65858017 6.35410172 51.65858017 6.35410172 50.08860779 6.3473053 C48.34702896 6.3470787 48.34702896 6.3470787 46.57026672 6.34684753 C45.3119101 6.33652496 44.05355347 6.32620239 42.75706482 6.31556702 C41.47252411 6.31273712 40.1879834 6.30990723 38.86451721 6.30699158 C35.44824965 6.29935261 32.03215195 6.27970204 28.61595154 6.25758362 C25.13046059 6.23713076 21.64494222 6.22799107 18.15940857 6.21791077 C11.31949501 6.19645626 4.47969432 6.16231723 -2.36012268 6.12025452 C-2.74231035 4.46410794 -3.0740737 2.79568427 -3.36012268 1.12025452 C-2.36012268 0.12025452 -2.36012268 0.12025452 0 0 Z " fill="#253A3D" transform="translate(518.3601226806641,419.87974548339844)"/>
<path d="M0 0 C1.04590805 0.00222061 2.0918161 0.00444122 3.16941833 0.00672913 C4.35056717 0.00680466 5.531716 0.00688019 6.74865723 0.00695801 C8.03404892 0.01211929 9.31944061 0.01728058 10.64378357 0.02259827 C12.60601112 0.02472069 12.60601112 0.02472069 14.60787964 0.02688599 C18.09150591 0.03071042 21.57509071 0.04054005 25.05870056 0.05158997 C28.6111444 0.06180569 32.16359491 0.06638395 35.71604919 0.07142639 C42.69067564 0.0821624 49.66527449 0.09923792 56.63987732 0.12025452 C57.26487732 1.99525452 57.26487732 1.99525452 57.63987732 4.12025452 C55.63987732 6.12025452 55.63987732 6.12025452 53.19746399 6.36076355 C51.65858017 6.35410172 51.65858017 6.35410172 50.08860779 6.3473053 C48.34702896 6.3470787 48.34702896 6.3470787 46.57026672 6.34684753 C45.3119101 6.33652496 44.05355347 6.32620239 42.75706482 6.31556702 C41.47252411 6.31273712 40.1879834 6.30990723 38.86451721 6.30699158 C35.44824965 6.29935261 32.03215195 6.27970204 28.61595154 6.25758362 C25.13046059 6.23713076 21.64494222 6.22799107 18.15940857 6.21791077 C11.31949501 6.19645626 4.47969432 6.16231723 -2.36012268 6.12025452 C-2.74231035 4.46410794 -3.0740737 2.79568427 -3.36012268 1.12025452 C-2.36012268 0.12025452 -2.36012268 0.12025452 0 0 Z " fill="#2C4347" transform="translate(518.3601226806641,517.8797454833984)"/>
<path d="M0 0 C2.64 0 5.28 0 8 0 C8 2.31 8 4.62 8 7 C9.98 7 11.96 7 14 7 C14 8.98 14 10.96 14 13 C12.02 13 10.04 13 8 13 C8.33 17.62 8.66 22.24 9 27 C10.65 26.67 12.3 26.34 14 26 C14.625 28.375 14.625 28.375 15 31 C12.47206088 33.52793912 10.62785835 33.35113422 7.16796875 33.55859375 C3.62865457 32.64666235 2.18639055 30.86727342 0 28 C-0.36771245 25.1612599 -0.48630804 22.98179849 -0.3125 20.1875 C-0.28994141 19.49462891 -0.26738281 18.80175781 -0.24414062 18.08789062 C-0.18562661 16.39098427 -0.0959548 14.69520139 0 13 C-0.99 13 -1.98 13 -3 13 C-3 10.69 -3 8.38 -3 6 C-2.01 6 -1.02 6 0 6 C0 4.02 0 2.04 0 0 Z " fill="#243A3F" transform="translate(493,697)"/>
<path d="M0 0 C1 4 1 4 0.75 7.5 C0.66060814 11.02194471 0.66060814 11.02194471 2.8125 13.1875 C6.6219646 15.35366615 10.46901553 16.56930259 14.671875 17.77734375 C17 19 17 19 17.890625 21.56640625 C17.94476562 22.77103516 17.94476562 22.77103516 18 24 C16.46948354 25.53051646 15.0675065 25.28000829 12.9375 25.375 C7.41632009 25.35730391 4.39190445 23.19411233 0 20 C-0.66 23.3 -1.32 26.6 -2 30 C-3.32 30.33 -4.64 30.66 -6 31 C-6 29.02 -6 27.04 -6 25 C-7.65 25.33 -9.3 25.66 -11 26 C-12.38226016 23.23547967 -12.09525387 20.9538637 -12.0625 17.875 C-12.05347656 16.77929688 -12.04445313 15.68359375 -12.03515625 14.5546875 C-12.02355469 13.71164062 -12.01195312 12.86859375 -12 12 C-10.02 12 -8.04 12 -6 12 C-6 10.02 -6 8.04 -6 6 C-5.67 6.99 -5.34 7.98 -5 9 C-3.68 9 -2.36 9 -1 9 C-0.67 6.03 -0.34 3.06 0 0 Z " fill="#C7E2DE" transform="translate(513,698)"/>
<path d="M0 0 C0.83272934 0.00222061 1.66545868 0.00444122 2.52342224 0.00672913 C3.46432205 0.00680466 4.40522186 0.00688019 5.37463379 0.00695801 C6.39754013 0.01211929 7.42044647 0.01728058 8.47434998 0.02259827 C9.51614914 0.02401321 10.5579483 0.02542816 11.63131714 0.02688599 C14.97355467 0.03250372 18.31572629 0.04505922 21.65794373 0.05775452 C23.91770839 0.06276723 26.17747409 0.06733053 28.4372406 0.07142639 C33.98999763 0.08247891 39.54271597 0.09923428 45.09544373 0.12025452 C45.4776314 1.77640109 45.80939474 3.44482476 46.09544373 5.12025452 C45.09544373 6.12025452 45.09544373 6.12025452 43.19088745 6.24050903 C42.35815811 6.23828842 41.52542877 6.23606781 40.66746521 6.23377991 C39.7265654 6.23370438 38.78566559 6.23362885 37.81625366 6.23355103 C36.79334732 6.22838974 35.77044098 6.22322845 34.71653748 6.21791077 C33.67473831 6.21649582 32.63293915 6.21508087 31.55957031 6.21362305 C28.21733279 6.20800531 24.87516116 6.19544982 21.53294373 6.18275452 C19.27317906 6.1777418 17.01341336 6.1731785 14.75364685 6.16908264 C9.20088982 6.15803013 3.64817148 6.14127476 -1.90455627 6.12025452 C-2.28674395 4.46410794 -2.61850729 2.79568427 -2.90455627 1.12025452 C-1.90455627 0.12025452 -1.90455627 0.12025452 0 0 Z " fill="#1D3237" transform="translate(450.90455627441406,484.87974548339844)"/>
<path d="M0 0 C15.51 0 31.02 0 47 0 C47.495 1.98 47.495 1.98 48 4 C45.57613655 6.42386345 44.98938588 6.25210208 41.67382812 6.25878906 C40.77950073 6.26509338 39.88517334 6.27139771 38.96374512 6.27789307 C37.51216003 6.27182037 37.51216003 6.27182037 36.03125 6.265625 C34.54437683 6.26849518 34.54437683 6.26849518 33.02746582 6.27142334 C30.92927802 6.27278585 28.83108181 6.26908482 26.73291016 6.26074219 C23.51315454 6.25004371 20.29395692 6.26063536 17.07421875 6.2734375 C15.03906126 6.27211592 13.00390412 6.26955355 10.96875 6.265625 C10.00102661 6.26967346 9.03330322 6.27372192 8.03625488 6.27789307 C7.14192749 6.27158875 6.2476001 6.26528442 5.32617188 6.25878906 C4.53722534 6.25719788 3.74827881 6.25560669 2.9354248 6.25396729 C1 6 1 6 -1 4 C-0.67 2.68 -0.34 1.36 0 0 Z " fill="#2B4146" transform="translate(449,518)"/>
<path d="M0 0 C0.83272934 0.00222061 1.66545868 0.00444122 2.52342224 0.00672913 C3.46432205 0.00680466 4.40522186 0.00688019 5.37463379 0.00695801 C6.39754013 0.01211929 7.42044647 0.01728058 8.47434998 0.02259827 C9.51614914 0.02401321 10.5579483 0.02542816 11.63131714 0.02688599 C14.97355467 0.03250372 18.31572629 0.04505922 21.65794373 0.05775452 C23.91770839 0.06276723 26.17747409 0.06733053 28.4372406 0.07142639 C33.98999763 0.08247891 39.54271597 0.09923428 45.09544373 0.12025452 C45.13816473 1.78637357 45.13608205 3.45408337 45.09544373 5.12025452 C44.09544373 6.12025452 44.09544373 6.12025452 42.22885132 6.24050903 C41.41388687 6.23828842 40.59892242 6.23606781 39.75926208 6.23377991 C38.3779435 6.23366661 38.3779435 6.23366661 36.96871948 6.23355103 C35.96768692 6.22838974 34.96665436 6.22322845 33.93528748 6.21791077 C32.91568436 6.21649582 31.89608124 6.21508087 30.84558105 6.21362305 C27.57467265 6.20800548 24.30383159 6.19545002 21.03294373 6.18275452 C18.82135617 6.17774178 16.60976754 6.17317848 14.3981781 6.16908264 C8.96391016 6.15803035 3.52968175 6.14127515 -1.90455627 6.12025452 C-2.28674395 4.46410794 -2.61850729 2.79568427 -2.90455627 1.12025452 C-1.90455627 0.12025452 -1.90455627 0.12025452 0 0 Z " fill="#283F41" transform="translate(450.90455627441406,419.87974548339844)"/>
<path d="M0 0 C6.53278786 -0.02527002 13.06556321 -0.04283292 19.59838867 -0.05493164 C21.82267732 -0.05997317 24.04696263 -0.06680623 26.27124023 -0.07543945 C29.46078309 -0.08751298 32.65028229 -0.09322996 35.83984375 -0.09765625 C37.34139259 -0.10539818 37.34139259 -0.10539818 38.87327576 -0.11329651 C39.79415482 -0.11337204 40.71503387 -0.11344757 41.66381836 -0.11352539 C42.47878281 -0.115746 43.29374725 -0.11796661 44.13340759 -0.12025452 C46 0 46 0 47 1 C47 2.65 47 4.3 47 6 C31.49 6 15.98 6 0 6 C-1 2 -1 2 0 0 Z " fill="#1E3339" transform="translate(449,550)"/>
<path d="M0 0 C3.43403788 2.00011167 6.21175747 4.42351494 8 8 C8 10.97 8 13.94 8 17 C2.06 17 -3.88 17 -10 17 C-10 16.67 -10 16.34 -10 16 C-8.35 15.67 -6.7 15.34 -5 15 C-5.89335797 12.64214682 -5.89335797 12.64214682 -9.0625 11.875 C-10.031875 11.58625 -11.00125 11.2975 -12 11 C-12 8.69 -12 6.38 -12 4 C-13.98 4.99 -13.98 4.99 -16 6 C-11.2852139 -0.12922193 -7.69369326 -1.25166055 0 0 Z " fill="#31474B" transform="translate(478,702)"/>
<path d="M0 0 C0.66 0.33 1.32 0.66 2 1 C2 35.65 2 70.3 2 106 C-0.97 106.99 -3.94 107.98 -7 109 C-7.89332031 109.30164063 -8.78664063 109.60328125 -9.70703125 109.9140625 C-10.40183594 110.14867187 -11.09664062 110.38328125 -11.8125 110.625 C-12.52019531 110.86476563 -13.22789062 111.10453125 -13.95703125 111.3515625 C-15.95669595 111.98625531 -17.95961786 112.51397639 -20 113 C-19.67 112.01 -19.34 111.02 -19 110 C-16.52665762 108.95222369 -14.17972108 108.09838539 -11.625 107.3125 C-10.59632813 106.97508789 -10.59632813 106.97508789 -9.546875 106.63085938 C-6.59234644 105.68529527 -4.1196449 105 -1 105 C-0.67 70.35 -0.34 35.7 0 0 Z " fill="#51CBB6" transform="translate(641,332)"/>
<path d="M0 0 C1.98 0 3.96 0 6 0 C6 4.29 6 8.58 6 13 C6.66 13 7.32 13 8 13 C8.66 14.32 9.32 15.64 10 17 C9.34 17.99 8.68 18.98 8 20 C7.69933846 22.75417318 7.49074701 25.42645147 7.375 28.1875 C7.33632813 28.93708984 7.29765625 29.68667969 7.2578125 30.45898438 C7.16371784 32.30559199 7.08077681 34.1527619 7 36 C4.69 36 2.38 36 0 36 C0 24.12 0 12.24 0 0 Z " fill="#21353B" transform="translate(399,693)"/>
<path d="M0 0 C0.33 0.66 0.66 1.32 1 2 C1.66 2 2.32 2 3 2 C3.08082094 3.95766281 3.13910778 5.91626728 3.1875 7.875 C3.23970703 9.51082031 3.23970703 9.51082031 3.29296875 11.1796875 C3.19628906 12.11039063 3.09960938 13.04109375 3 14 C2.01 14.66 1.02 15.32 0 16 C-0.33 15.01 -0.66 14.02 -1 13 C-3.41645782 12.83312552 -3.41645782 12.83312552 -6 13 C-6.66 13.66 -7.32 14.32 -8 15 C-11.4375 15.375 -11.4375 15.375 -15 15 C-16.9375 13.4375 -16.9375 13.4375 -18 11 C-18.62376238 5.07425743 -18.62376238 5.07425743 -16.875 2.0625 C-14.1769493 0.53360461 -12.04470288 0.74087635 -9 1 C-8.34 1.33 -7.68 1.66 -7 2 C-7 2.66 -7 3.32 -7 4 C-4.97954558 3.39816251 -2.97888961 2.72693904 -1 2 C-0.67 1.34 -0.34 0.68 0 0 Z " fill="#C9E4E1" transform="translate(634,708)"/>
<path d="M0 0 C3.73639216 1.24546405 4.18756513 2.63404953 6 6 C4.68 5.67 3.36 5.34 2 5 C2 19.52 2 34.04 2 49 C2.99 49 3.98 49 5 49 C5 49.66 5 50.32 5 51 C18.2 50.67 31.4 50.34 45 50 C45.495 49.01 45.495 49.01 46 48 C45.01 47.01 44.02 46.02 43 45 C43.495 44.01 43.495 44.01 44 43 C45.33929505 44.28548409 46.67128643 45.57858155 48 46.875 C48.7425 47.59429687 49.485 48.31359375 50.25 49.0546875 C52 51 52 51 52 53 C45.23743488 53.10138675 38.47506561 53.17145971 31.71191406 53.21972656 C29.41105831 53.23984688 27.11025371 53.26714634 24.80957031 53.30175781 C21.50312683 53.35025612 18.19735915 53.37296478 14.890625 53.390625 C13.86132874 53.41127014 12.83203247 53.43191528 11.77154541 53.45318604 C7.83837651 53.45442296 4.88855388 53.44493029 1.34375 51.66992188 C-0.88816644 47.23528558 -0.48660269 42.77743445 -0.390625 37.890625 C-0.38496521 36.80867859 -0.37930542 35.72673218 -0.37347412 34.61199951 C-0.35108999 31.15754893 -0.30088791 27.70413689 -0.25 24.25 C-0.22993772 21.90756707 -0.21168648 19.56511787 -0.1953125 17.22265625 C-0.15121855 11.4814167 -0.08428555 5.74078255 0 0 Z " fill="#A5EDE2" transform="translate(562,340)"/>
<path d="M0 0 C14.85 0 29.7 0 45 0 C45.495 1.98 45.495 1.98 46 4 C43.6699002 5.1650499 42.32752923 5.1209358 39.73388672 5.11352539 C38.41274368 5.11341209 38.41274368 5.11341209 37.06491089 5.11329651 C36.11278717 5.10813522 35.16066345 5.10297394 34.1796875 5.09765625 C33.20589142 5.0962413 32.23209534 5.09482635 31.22879028 5.09336853 C28.11082927 5.08775973 24.9929394 5.07520573 21.875 5.0625 C19.76432395 5.05748613 17.65364678 5.05292303 15.54296875 5.04882812 C10.36195479 5.03778745 5.18098248 5.02104073 0 5 C-0.33 4.01 -0.66 3.02 -1 2 C-0.67 1.34 -0.34 0.68 0 0 Z " fill="#1E3437" transform="translate(451,453)"/>
<path d="M0 0 C0.33 0.66 0.66 1.32 1 2 C3.02463255 2.65213292 3.02463255 2.65213292 5 3 C5 4.65 5 6.3 5 8 C3.02 8.99 3.02 8.99 1 10 C1 11.32 1 12.64 1 14 C1.66 14.33 2.32 14.66 3 15 C-0.73075501 16.243585 -4.13049698 16.64742657 -8 16 C-11.01067289 13.99288474 -12.64754104 12.60322042 -13.44140625 8.9921875 C-13.62162916 5.84119336 -13.42364441 3.58941831 -11.5625 1 C-7.73363249 -0.4941922 -4.05973579 -0.23421553 0 0 Z " fill="#273C40" transform="translate(590,714)"/>
<path d="M0 0 C0.99 0.33 1.98 0.66 3 1 C4.57961159 1.11448477 6.16333852 1.17622932 7.74682617 1.20532227 C9.20807922 1.23559509 9.20807922 1.23559509 10.69885254 1.26647949 C12.23044006 1.29119324 12.23044006 1.29119324 13.79296875 1.31640625 C15.20382751 1.34438293 15.20382751 1.34438293 16.64318848 1.3729248 C20.15786312 1.44124095 23.67269289 1.50137789 27.1875 1.5625 C35.045625 1.706875 42.90375 1.85125 51 2 C51 19.16 51 36.32 51 54 C51.99 54.495 51.99 54.495 53 55 C51.02 55.495 51.02 55.495 49 56 C49 38.84 49 21.68 49 4 C33.99638797 4.07913771 33.99638797 4.07913771 18.99291992 4.18017578 C17.11377183 4.1860163 15.23462122 4.1911129 13.35546875 4.1953125 C12.37759399 4.20554443 11.39971924 4.21577637 10.39221191 4.22631836 C9.45864868 4.22656006 8.52508545 4.22680176 7.56323242 4.22705078 C6.34744759 4.23371262 6.34744759 4.23371262 5.10710144 4.24050903 C3 4 3 4 0 2 C0 1.34 0 0.68 0 0 Z " fill="#A9EDE2" transform="translate(558,399)"/>
<path d="M0 0 C3.43403788 2.00011167 6.21175747 4.42351494 8 8 C8 10.64 8 13.28 8 16 C1.73 16 -4.54 16 -11 16 C-11 14.66666667 -11 13.33333333 -11 12 C-7.04 12 -3.08 12 1 12 C-0.50337786 8.04614798 -0.50337786 8.04614798 -2.83984375 6.98828125 C-3.53207031 6.76527344 -4.22429688 6.54226563 -4.9375 6.3125 C-5.62714844 6.08175781 -6.31679688 5.85101562 -7.02734375 5.61328125 C-7.67832031 5.41089844 -8.32929687 5.20851563 -9 5 C-9.99 4.67 -10.98 4.34 -12 4 C-14.16715557 4.87483915 -14.16715557 4.87483915 -16 6 C-11.2852139 -0.12922193 -7.69369326 -1.25166055 0 0 Z " fill="#20353A" transform="translate(655,702)"/>
<path d="M0 0 C2.64 0 5.28 0 8 0 C8.33 3.96 8.66 7.92 9 12 C9.66 11.34 10.32 10.68 11 10 C13.1640625 9.8046875 13.1640625 9.8046875 15.625 9.875 C16.85089844 9.90207031 16.85089844 9.90207031 18.1015625 9.9296875 C19.04128906 9.96449219 19.04128906 9.96449219 20 10 C19.67 10.99 19.34 11.98 19 13 C19.66 13.33 20.32 13.66 21 14 C21 14.66 21 15.32 21 16 C20.34 16 19.68 16 19 16 C19 16.99 19 17.98 19 19 C19.66 19.33 20.32 19.66 21 20 C20.34 25.61 19.68 31.22 19 37 C18.67 37 18.34 37 18 37 C17.67 31.06 17.34 25.12 17 19 C14.36 18.01 11.72 17.02 9 16 C9 15.34 9 14.68 9 14 C8.34 14 7.68 14 7 14 C7 9.71 7 5.42 7 1 C5.02 1 3.04 1 1 1 C1 12.88 1 24.76 1 37 C3.31 37 5.62 37 8 37 C8 37.33 8 37.66 8 38 C5.36 38 2.72 38 0 38 C0 25.46 0 12.92 0 0 Z " fill="#445A5D" transform="translate(398,692)"/>
<path d="M0 0 C0 6.6 0 13.2 0 20 C-7.875 20 -7.875 20 -11 19 C-11 17.68 -11 16.36 -11 15 C-10.01 14.34 -9.02 13.68 -8 13 C-7.27034634 10.43717258 -7.27034634 10.43717258 -7 8 C-8.98 8 -10.96 8 -13 8 C-12.67 7.01 -12.34 6.02 -12 5 C-10.02 5 -8.04 5 -6 5 C-6 4.01 -6 3.02 -6 2 C-2.25 0 -2.25 0 0 0 Z " fill="#23373C" transform="translate(602,709)"/>
<path d="M0 0 C2.09491746 3.40424088 2.49573145 6.03414842 2 10 C0.375 12.375 0.375 12.375 -2 14 C-5.14389944 14.44912849 -7.05480125 14.504106 -9.875 13 C-11.68923163 9.77469932 -11.52571333 6.60489139 -11 3 C-8.8254183 -1.34916341 -4.24620661 -0.20882983 0 0 Z " fill="#C5E1DF" transform="translate(563,709)"/>
<path d="M0 0 C2.625 0.375 2.625 0.375 5 1 C5.33 2.32 5.66 3.64 6 5 C0.25612187 8.95689382 -3.94344429 10.77181078 -11 10 C-14.92013204 8.29559476 -16.25773993 6.79844086 -18 3 C-13.65000669 2.4476199 -9.45594063 1.99276285 -5.0625 2.0625 C-1.88968786 2.35137574 -1.88968786 2.35137574 0 0 Z " fill="#2B4045" transform="translate(628,720)"/>
<path d="M0 0 C19.47 0 38.94 0 59 0 C59.495 2.475 59.495 2.475 60 5 C59 6 59 6 56.63987732 6.12025452 C55.59396927 6.11803391 54.54806122 6.11581329 53.47045898 6.11352539 C52.28931015 6.11344986 51.10816132 6.11337433 49.89122009 6.11329651 C48.6058284 6.10813522 47.32043671 6.10297394 45.99609375 6.09765625 C44.68794205 6.0962413 43.37979034 6.09482635 42.03199768 6.09336853 C38.54837141 6.0895441 35.06478661 6.07971446 31.58117676 6.06866455 C28.02873292 6.05844882 24.47628241 6.05387056 20.92382812 6.04882812 C13.94920168 6.03809212 6.97460283 6.0210166 0 6 C0 5.67 0 5.34 0 5 C27.225 4.505 27.225 4.505 55 4 C55 3.34 55 2.68 55 2 C36.85 1.67 18.7 1.34 0 1 C0 0.67 0 0.34 0 0 Z " fill="#455E5F" transform="translate(516,485)"/>
<path d="M0 0 C15.18 0 30.36 0 46 0 C46 0.33 46 0.66 46 1 C43.36 1 40.72 1 38 1 C38 1.66 38 2.32 38 3 C26.12 3 14.24 3 2 3 C2 3.99 2 4.98 2 6 C1.01 5.67 0.02 5.34 -1 5 C-0.67 3.35 -0.34 1.7 0 0 Z " fill="#485E63" transform="translate(449,550)"/>
<path d="M0 0 C4.62 0.99 9.24 1.98 14 3 C14.04936398 10.49307285 14.08570259 17.98605146 14.10986328 25.47924805 C14.11993328 28.02939502 14.13359004 30.57953042 14.15087891 33.12963867 C14.17508312 36.7908819 14.18647305 40.45197274 14.1953125 44.11328125 C14.20563507 45.2571077 14.21595764 46.40093414 14.22659302 47.579422 C14.22674408 48.64029526 14.22689514 49.70116852 14.22705078 50.79418945 C14.231492 51.72906693 14.23593323 52.6639444 14.24050903 53.62715149 C14 56 14 56 12 59 C11.67 41.18 11.34 23.36 11 5 C7.37 4.01 3.74 3.02 0 2 C0 1.34 0 0.68 0 0 Z " fill="#4CC6B2" transform="translate(629,567)"/>
<path d="M0 0 C0.5259375 0.7425 0.5259375 0.7425 1.0625 1.5 C3.98526435 3.7627853 6.40237265 3.25246508 10 3 C11.11375 2.690625 11.11375 2.690625 12.25 2.375 C13.11625 2.189375 13.11625 2.189375 14 2 C14.99 2.66 15.98 3.32 17 4 C16.875 5.8125 16.875 5.8125 16 8 C11.24218687 11.24923823 7.55896417 11.44830356 2 11 C-0.4375 10.25 -0.4375 10.25 -2 9 C-2.75 6.875 -2.75 6.875 -3 5 C-2.34 4.67 -1.68 4.34 -1 4 C-0.34786708 1.97536745 -0.34786708 1.97536745 0 0 Z " fill="#2B4145" transform="translate(467,719)"/>
<path d="M0 0 C0.83272934 0.00222061 1.66545868 0.00444122 2.52342224 0.00672913 C3.46432205 0.00680466 4.40522186 0.00688019 5.37463379 0.00695801 C6.39754013 0.01211929 7.42044647 0.01728058 8.47434998 0.02259827 C9.51614914 0.02401321 10.5579483 0.02542816 11.63131714 0.02688599 C14.97355467 0.03250372 18.31572629 0.04505922 21.65794373 0.05775452 C23.91770839 0.06276723 26.17747409 0.06733053 28.4372406 0.07142639 C33.98999763 0.08247891 39.54271597 0.09923428 45.09544373 0.12025452 C45.4776314 1.77640109 45.80939474 3.44482476 46.09544373 5.12025452 C45.09544373 6.12025452 45.09544373 6.12025452 43.19088745 6.24050903 C42.35815811 6.23828842 41.52542877 6.23606781 40.66746521 6.23377991 C39.7265654 6.23370438 38.78566559 6.23362885 37.81625366 6.23355103 C36.79334732 6.22838974 35.77044098 6.22322845 34.71653748 6.21791077 C33.67473831 6.21649582 32.63293915 6.21508087 31.55957031 6.21362305 C28.21733279 6.20800531 24.87516116 6.19544982 21.53294373 6.18275452 C19.27317906 6.1777418 17.01341336 6.1731785 14.75364685 6.16908264 C9.20088982 6.15803013 3.64817148 6.14127476 -1.90455627 6.12025452 C-2.28674395 4.46410794 -2.61850729 2.79568427 -2.90455627 1.12025452 C-1.90455627 0.12025452 -1.90455627 0.12025452 0 0 Z M-0.90455627 1.12025452 C-0.90455627 2.44025452 -0.90455627 3.76025452 -0.90455627 5.12025452 C12.95544373 5.12025452 26.81544373 5.12025452 41.09544373 5.12025452 C41.09544373 3.80025452 41.09544373 2.48025452 41.09544373 1.12025452 C27.23544373 1.12025452 13.37544373 1.12025452 -0.90455627 1.12025452 Z " fill="#4E6768" transform="translate(450.90455627441406,484.87974548339844)"/>
<path d="M0 0 C8.73954048 0.02585663 8.73954048 0.02585663 12.890625 1.1328125 C14.015625 6.7578125 14.015625 6.7578125 12.890625 10.1328125 C13.220625 10.7928125 13.550625 11.4528125 13.890625 12.1328125 C13.18421875 11.84019531 12.4778125 11.54757812 11.75 11.24609375 C9.86733755 10.51308993 7.95942205 9.84149354 6.03125 9.23828125 C5.07734375 8.93535156 4.1234375 8.63242187 3.140625 8.3203125 C2.17640625 8.02511719 1.2121875 7.72992187 0.21875 7.42578125 C-2.109375 6.1328125 -2.109375 6.1328125 -3 3.55859375 C-3.03609375 2.75808594 -3.0721875 1.95757813 -3.109375 1.1328125 C-2.109375 0.1328125 -2.109375 0.1328125 0 0 Z " fill="#C4DFDE" transform="translate(377.109375,699.8671875)"/>
<path d="M0 0 C1.45945288 0.08708669 2.91765868 0.19526907 4.375 0.3125 C5.59316406 0.39951172 5.59316406 0.39951172 6.8359375 0.48828125 C9 1 9 1 11 4 C10.9375 6.5 10.9375 6.5 10 9 C7.25504222 11.28746482 5.84025326 12.05728999 2.25 11.8125 C0 11 0 11 -1 9 C-0.91348369 7.45386986 -0.75997364 5.91090613 -0.5625 4.375 C-0.46066406 3.55773437 -0.35882812 2.74046875 -0.25390625 1.8984375 C-0.17011719 1.27195312 -0.08632813 0.64546875 0 0 Z " fill="#E6F8F3" transform="translate(513,958)"/>
<path d="M0 0 C0.83402344 0.39832031 1.66804687 0.79664063 2.52734375 1.20703125 C17.2510721 8.13882088 31.76116752 13.06352532 48.0625 8.33984375 C50.32369407 7.94322302 51.83184349 8.30793218 54 9 C43.94938852 14.8628567 30.31908559 14.27248302 19.3125 11.6875 C15.42030778 10.64701297 12.41646791 9.11716602 9 7 C7.948125 6.7525 7.948125 6.7525 6.875 6.5 C4.52923435 5.87446249 3.61790218 4.76498419 2 3 C1.34 2.67 0.68 2.34 0 2 C0 1.34 0 0.68 0 0 Z " fill="#E5DCC5" transform="translate(619,549)"/>
<path d="M0 0 C1.35117416 0.0001133 1.35117416 0.0001133 2.72964478 0.00022888 C3.70364227 0.00539017 4.67763977 0.01055145 5.68115234 0.01586914 C6.67714447 0.01728409 7.6731366 0.01869904 8.6993103 0.02015686 C11.88860037 0.02576603 15.0778209 0.03832009 18.26708984 0.05102539 C20.425943 0.05603921 22.58479725 0.06060232 24.74365234 0.06469727 C30.04315534 0.07573844 35.34261763 0.09248552 40.64208984 0.11352539 C40.64208984 0.44352539 40.64208984 0.77352539 40.64208984 1.11352539 C26.12208984 1.11352539 11.60208984 1.11352539 -3.35791016 1.11352539 C-3.35791016 2.43352539 -3.35791016 3.75352539 -3.35791016 5.11352539 C18.42208984 5.60852539 18.42208984 5.60852539 40.64208984 6.11352539 C40.64208984 6.44352539 40.64208984 6.77352539 40.64208984 7.11352539 C34.27005392 7.16412169 27.89806954 7.19921496 21.52587891 7.22338867 C19.3569139 7.23346328 17.18796253 7.24712337 15.01904297 7.2644043 C11.90637859 7.28858862 8.79389333 7.29999371 5.68115234 7.30883789 C4.70715485 7.31916046 3.73315735 7.32948303 2.72964478 7.34011841 C1.828862 7.34026947 0.92807922 7.34042053 0 7.34057617 C-1.19246841 7.34723801 -1.19246841 7.34723801 -2.4090271 7.35403442 C-4.35791016 7.11352539 -4.35791016 7.11352539 -6.35791016 5.11352539 C-6.35791016 3.79352539 -6.35791016 2.47352539 -6.35791016 1.11352539 C-4.00590956 -0.06247491 -2.62056615 -0.00732002 0 0 Z " fill="#779191" transform="translate(454.35791015625,451.886474609375)"/>
<path d="M0 0 C2.625 0.9375 2.625 0.9375 5 2 C5 2.99 5 3.98 5 5 C-0.37945831 8.58630554 -3.53873191 9.54756509 -10 9 C-10.66 8.67 -11.32 8.34 -12 8 C-12 7.34 -12 6.68 -12 6 C-11.34 6 -10.68 6 -10 6 C-10.33 4.68 -10.66 3.36 -11 2 C-10.06027344 1.90912109 -10.06027344 1.90912109 -9.1015625 1.81640625 C-7.87566406 1.69072266 -7.87566406 1.69072266 -6.625 1.5625 C-5.81289063 1.48128906 -5.00078125 1.40007813 -4.1640625 1.31640625 C-1.95727195 1.10909886 -1.95727195 1.10909886 0 0 Z " fill="#31464A" transform="translate(656,721)"/>
<path d="M0 0 C2.9719385 1.12451727 5.33440687 2.22293791 8 4 C10.27912938 4.45394552 10.27912938 4.45394552 12.6875 4.625 C13.89986328 4.73714844 13.89986328 4.73714844 15.13671875 4.8515625 C15.75160156 4.90054688 16.36648438 4.94953125 17 5 C14.05047042 6.49997444 11.08510827 7.80023567 8 9 C8 9.33 8 9.66 8 10 C10.97 10.33 13.94 10.66 17 11 C17 11.33 17 11.66 17 12 C10.43683771 12.48416771 4.26832492 12.45675529 -1 8 C-2.03649106 5.31978069 -2.18407373 4.44177696 -1.0625 1.75 C-0.711875 1.1725 -0.36125 0.595 0 0 Z " fill="#2F4448" transform="translate(513,718)"/>
<path d="M0 0 C4.15778498 0.07573379 6.22144865 1.40894865 9.1875 4.375 C8.8575 5.695 8.5275 7.015 8.1875 8.375 C6.2075 8.705 4.2275 9.035 2.1875 9.375 C2.1875 8.715 2.1875 8.055 2.1875 7.375 C-0.7825 7.045 -3.7525 6.715 -6.8125 6.375 C-5.53099945 1.24899782 -5.28478978 0.51981539 0 0 Z " fill="#21363B" transform="translate(624.8125,702.625)"/>
<path d="M0 0 C19.47 0 38.94 0 59 0 C59.495 1.98 59.495 1.98 60 4 C57.3333581 5.33332095 55.83319697 4.67102033 53 4 C53 3.01 53 2.02 53 1 C47.04081583 1.11893129 41.08177543 1.24322017 35.12280273 1.37231445 C33.09874449 1.41542762 31.07465537 1.45711757 29.05053711 1.49731445 C26.12864917 1.55559392 23.20691324 1.61911715 20.28515625 1.68359375 C19.39103531 1.70030624 18.49691437 1.71701874 17.57569885 1.73423767 C7.53504129 1.29101688 7.53504129 1.29101688 -1 5 C-0.67 3.35 -0.34 1.7 0 0 Z " fill="#2E4547" transform="translate(516,420)"/>
<path d="M0 0 C1.65 0 3.3 0 5 0 C7.02055843 4.39251833 8.40895235 8.15340923 9 13 C5.04 13 1.08 13 -3 13 C-3 12.67 -3 12.34 -3 12 C-1.02 11.67 0.96 11.34 3 11 C1.35 10.67 -0.3 10.34 -2 10 C-1.34 6.7 -0.68 3.4 0 0 Z " fill="#E2F3F0" transform="translate(547,955)"/>
<path d="M0 0 C1.32 0 2.64 0 4 0 C4 2.64 4 5.28 4 8 C5.98 8 7.96 8 10 8 C10 5.36 10 2.72 10 0 C10.66 0 11.32 0 12 0 C12.10807131 1.93627769 12.1856225 3.87427756 12.25 5.8125 C12.29640625 6.89144531 12.3428125 7.97039063 12.390625 9.08203125 C12 12 12 12 10.1875 13.90625 C7.16964863 15.41517568 5.20022169 14.80005542 2 14 C2 13.34 2 12.68 2 12 C3.98 12 5.96 12 8 12 C8.33 11.34 8.66 10.68 9 10 C7.2984375 10.0309375 7.2984375 10.0309375 5.5625 10.0625 C2 10 2 10 1 9 C0.76807135 7.48530552 0.58784762 5.96245438 0.4375 4.4375 C0.35371094 3.61121094 0.26992188 2.78492188 0.18359375 1.93359375 C0.12300781 1.29550781 0.06242188 0.65742187 0 0 Z " fill="#E9F7F5" transform="translate(525,959)"/>
<path d="M0 0 C0.66 0 1.32 0 2 0 C2 2.31 2 4.62 2 7 C4.64 7 7.28 7 10 7 C10 4.69 10 2.38 10 0 C10.99 0 11.98 0 13 0 C13 4.62 13 9.24 13 14 C12.01 14 11.02 14 10 14 C10 12.35 10 10.7 10 9 C7.36 9 4.72 9 2 9 C2 10.65 2 12.3 2 14 C1.34 14 0.68 14 0 14 C0 9.38 0 4.76 0 0 Z " fill="#EAF7F4" transform="translate(496,955)"/>
<path d="M0 0 C2.625 2 2.625 2 4 4 C3.01 4.33 2.02 4.66 1 5 C0.67 5.99 0.34 6.98 0 8 C-4 6.66666667 -8 5.33333333 -12 4 C-14.16715557 4.87483915 -14.16715557 4.87483915 -16 6 C-11.21315763 -0.22289508 -7.75265297 -0.96282948 0 0 Z " fill="#2B4043" transform="translate(655,702)"/>
<path d="M0 0 C3.44795223 1.53242321 6.2199038 3.44531701 9 6 C9.8125 8.25 9.8125 8.25 10 10 C12.97 10.495 12.97 10.495 16 11 C16 11.33 16 11.66 16 12 C9.79351012 12.33249053 5.68674354 11.54922986 0 9 C-0.66 8.34 -1.32 7.68 -2 7 C-1.60467975 4.54901444 -0.78698574 2.36095721 0 0 Z " fill="#354B4F" transform="translate(367,718)"/>
<path d="M0 0 C3.875 1.75 3.875 1.75 5 4 C5 6.31 5 8.62 5 11 C-1.27 11 -7.54 11 -14 11 C-14 10.67 -14 10.34 -14 10 C-10.7 10 -7.4 10 -4 10 C-4.33 9.01 -4.66 8.02 -5 7 C-4.01 7 -3.02 7 -2 7 C-2 5.35 -2 3.7 -2 2 C-1.34 2 -0.68 2 0 2 C0 1.34 0 0.68 0 0 Z " fill="#243A3F" transform="translate(451,707)"/>
<path d="M0 0 C1.32 0 2.64 0 4 0 C4 0.66 4 1.32 4 2 C5.65 1.67 7.3 1.34 9 1 C9.625 3.375 9.625 3.375 10 6 C8 8 8 8 4.125 8.3125 C1.26033786 8.2447898 0.07362374 8.04049306 -2.5 6.625 C-4 5 -4 5 -4 3 C-3.01 3 -2.02 3 -1 3 C-0.67 2.01 -0.34 1.02 0 0 Z " fill="#2D4347" transform="translate(498,722)"/>
<path d="M0 0 C-2.69736963 1.04475584 -3.8153191 1.06611688 -6.5859375 0.07421875 C-7.50632812 -0.38339844 -8.42671875 -0.84101563 -9.375 -1.3125 C-17.08230826 -5.10102195 -23.35181235 -6.34782317 -31.875 -6.625 C-32.84953125 -6.66367187 -33.8240625 -6.70234375 -34.828125 -6.7421875 C-37.2185672 -6.83593033 -39.60901244 -6.9216383 -42 -7 C-42 -6.34 -42 -5.68 -42 -5 C-46.07369424 -2.96315288 -48.58937864 -2.9742741 -53 -4 C-37.4571152 -14.3619232 -15.09223949 -7.63568793 0 0 Z " fill="#DD9C63" transform="translate(684,457)"/>
<path d="M0 0 C2.47923801 -0.02685095 4.9581884 -0.04676547 7.4375 -0.0625 C8.14455078 -0.07087891 8.85160156 -0.07925781 9.58007812 -0.08789062 C11.38693559 -0.09653588 13.19387603 -0.05220011 15 0 C16 1 16 1 16.09765625 3.06640625 C16.08605469 3.89011719 16.07445312 4.71382812 16.0625 5.5625 C16.05347656 6.38878906 16.04445313 7.21507812 16.03515625 8.06640625 C16.02355469 8.70449219 16.01195312 9.34257813 16 10 C15.34 10 14.68 10 14 10 C14 7.36 14 4.72 14 2 C12.35 2 10.7 2 9 2 C9 4.64 9 7.28 9 10 C8.34 10 7.68 10 7 10 C7 7.03 7 4.06 7 1 C5.68 1.33 4.36 1.66 3 2 C2.67 4.64 2.34 7.28 2 10 C1.34 10 0.68 10 0 10 C0 6.7 0 3.4 0 0 Z " fill="#EAF8F6" transform="translate(559,959)"/>
<path d="M0 0 C11 7 11 7 12 9 C10.35 8.67 8.7 8.34 7 8 C7 7.34 7 6.68 7 6 C5.35 5.67 3.7 5.34 2 5 C1.67 18.86 1.34 32.72 1 47 C0.67 47 0.34 47 0 47 C0 31.49 0 15.98 0 0 Z " fill="#3EBFAB" transform="translate(609,555)"/>
<path d="M0 0 C0.82604736 0.00386719 1.65209473 0.00773437 2.50317383 0.01171875 C8.40534043 0.09534681 13.83530433 0.74778474 19.5625 2.25 C20.0575 3.735 20.0575 3.735 20.5625 5.25 C18.71205078 4.76080078 18.71205078 4.76080078 16.82421875 4.26171875 C10.99794145 2.96965138 5.31881508 2.99265925 -0.625 3.0625 C-1.67880859 3.06314453 -2.73261719 3.06378906 -3.81835938 3.06445312 C-8.79269576 3.09266297 -13.5520491 3.19528262 -18.4375 4.25 C-18.4375 3.59 -18.4375 2.93 -18.4375 2.25 C-12.21583095 0.62058153 -6.4240388 -0.07332032 0 0 Z " fill="#E3E8D2" transform="translate(652.4375,446.75)"/>
<path d="M0 0 C7.75 -0.125 7.75 -0.125 10 1 C10.59355614 3.64860427 10.74209269 6.29197322 11 9 C9.53984709 8.71758359 8.08190207 8.42373386 6.625 8.125 C5.81289063 7.96257813 5.00078125 7.80015625 4.1640625 7.6328125 C2 7 2 7 0 5 C-0.125 2.375 -0.125 2.375 0 0 Z " fill="#C8E0E1" transform="translate(521,700)"/>
<path d="M0 0 C0.66 0 1.32 0 2 0 C3.0625 2.375 3.0625 2.375 4 5 C3.67 5.66 3.34 6.32 3 7 C3.66 7.33 4.32 7.66 5 8 C4.34 9.98 3.68 11.96 3 14 C-0.63 14 -4.26 14 -8 14 C-8 13.01 -8 12.02 -8 11 C-4.62902617 9.50178941 -2.79557881 9 1 9 C1.07427838 5.65747276 1.06546953 3.1964086 0 0 Z " fill="#1D3237" transform="translate(529,715)"/>
<path d="M0 0 C6.875 0.875 6.875 0.875 8 2 C9.90876847 2.07572224 11.82030937 2.08304395 13.73046875 2.0625 C14.9205957 2.05412109 16.11072266 2.04574219 17.33691406 2.03710938 C19.2429541 2.01874023 19.2429541 2.01874023 21.1875 2 C30.84625941 1.94627239 40.38502669 1.98789755 50 3 C50 3.33 50 3.66 50 4 C43.5222714 4.10140493 37.04474739 4.17146717 30.56640625 4.21972656 C28.3625524 4.23984419 26.15875193 4.26714172 23.95507812 4.30175781 C20.78762644 4.35026833 17.62088032 4.37296736 14.453125 4.390625 C12.97480194 4.42159271 12.97480194 4.42159271 11.46661377 4.45318604 C4.59692793 4.45544041 4.59692793 4.45544041 1.34667969 1.97558594 C0.68007324 0.9976709 0.68007324 0.9976709 0 0 Z " fill="#44C0AB" transform="translate(557,397)"/>
<path d="M0 0 C1.37478516 0.01740234 1.37478516 0.01740234 2.77734375 0.03515625 C3.69644531 0.04417969 4.61554687 0.05320312 5.5625 0.0625 C6.27277344 0.07410156 6.98304688 0.08570313 7.71484375 0.09765625 C6.83984375 4.97265625 6.83984375 4.97265625 5.71484375 6.09765625 C3.04425524 6.23880786 0.39052137 6.14012732 -2.28515625 6.09765625 C-2.66734392 4.44150968 -2.99910727 2.77308601 -3.28515625 1.09765625 C-2.28515625 0.09765625 -2.28515625 0.09765625 0 0 Z " fill="#BCD4D6" transform="translate(587.28515625,717.90234375)"/>
<path d="M0 0 C1.32 0.33 2.64 0.66 4 1 C3.01 1 2.02 1 1 1 C0.95875 1.7425 0.9175 2.485 0.875 3.25 C-0.35672952 7.12114993 -2.61708566 7.82982854 -6 10 C-7.63080946 11.70694062 -9.11590858 13.48887498 -10.609375 15.31640625 C-12.28333907 17.34303129 -14.10627828 19.17911373 -16 21 C-16.66 20.67 -17.32 20.34 -18 20 C-12 13.33333333 -6 6.66666667 0 0 Z " fill="#FAE2CB" transform="translate(675,473)"/>
<path d="M0 0 C0.33 0 0.66 0 1 0 C1.33 16.17 1.66 32.34 2 49 C2.66 49.33 3.32 49.66 4 50 C2.68 50.66 1.36 51.32 0 52 C0 34.84 0 17.68 0 0 Z " fill="#3FBCAA" transform="translate(609,401)"/>
<path d="M0 0 C6.46153846 0.46153846 6.46153846 0.46153846 9 3 C9 3.99 9 4.98 9 6 C5.04 6 1.08 6 -3 6 C-2 2 -2 2 0 0 Z " fill="#ACC6C8" transform="translate(440,708)"/>
<path d="M0 0 C15.51 0 31.02 0 47 0 C47 0.33 47 0.66 47 1 C32.48 1.33 17.96 1.66 3 2 C2.67 2.66 2.34 3.32 2 4 C1.01 4 0.02 4 -1 4 C-0.67 2.68 -0.34 1.36 0 0 Z " fill="#33494B" transform="translate(449,518)"/>
<path d="M0 0 C3 1 3 1 5 3 C3.68 3 2.36 3 1 3 C1 7.62 1 12.24 1 17 C0.67 17 0.34 17 0 17 C0 12.38 0 7.76 0 3 C-4.05535535 5.40290713 -4.05535535 5.40290713 -4.54589844 7.99291992 C-4.5668457 8.73131104 -4.58779297 9.46970215 -4.609375 10.23046875 C-4.64160156 11.03291016 -4.67382812 11.83535156 -4.70703125 12.66210938 C-4.72121094 13.49548828 -4.73539062 14.32886719 -4.75 15.1875 C-4.77964844 16.03248047 -4.80929687 16.87746094 -4.83984375 17.74804688 C-4.9104699 19.83151822 -4.95750795 21.91576506 -5 24 C-5.33 24 -5.66 24 -6 24 C-6.02887814 20.52085059 -6.04675687 17.04173169 -6.0625 13.5625 C-6.07087891 12.56927734 -6.07925781 11.57605469 -6.08789062 10.55273438 C-6.09111328 9.60849609 -6.09433594 8.66425781 -6.09765625 7.69140625 C-6.10289307 6.81685791 -6.10812988 5.94230957 -6.11352539 5.04125977 C-6 3 -6 3 -5 2 C-3.33382885 1.95936168 -1.66611905 1.957279 0 2 C0 1.34 0 0.68 0 0 Z " fill="#E7F5F3" transform="translate(444,949)"/>
<path d="M0 0 C0.66 0.33 1.32 0.66 2 1 C0.41438362 4.85593074 -2.06509954 7.33216291 -5 10.25 C-5.886875 11.14203125 -6.77375 12.0340625 -7.6875 12.953125 C-10 15 -10 15 -12 15 C-10.51131293 10.39860359 -8.25370145 7.49772906 -5 4 C-4.34 4 -3.68 4 -3 4 C-3 3.34 -3 2.68 -3 2 C-2.01 1.34 -1.02 0.68 0 0 Z " fill="#E39B60" transform="translate(618,460)"/>
<path d="M0 0 C4.75 1.875 4.75 1.875 7 3 C7.40729228 5.32156597 7.74438677 7.6568787 8 10 C4.62537285 9.45276317 2.91765 8.9451 0 7 C-0.1875 3.375 -0.1875 3.375 0 0 Z " fill="#EEFAF8" transform="translate(450,957)"/>
<path d="M0 0 C1.39412109 0.70576172 1.39412109 0.70576172 2.81640625 1.42578125 C4.0650491 2.05479682 5.31375015 2.68369688 6.5625 3.3125 C7.17158203 3.62123047 7.78066406 3.92996094 8.40820312 4.24804688 C14.43501251 7.27739551 20.21684704 10.10887669 26.9375 11.1875 C27.89527344 11.34605469 28.85304688 11.50460937 29.83984375 11.66796875 C30.55269531 11.77753906 31.26554688 11.88710938 32 12 C32 12.33 32 12.66 32 13 C23.8541089 12.72007247 17.39131327 11.39462395 10 8 C9.11570312 7.6596875 8.23140625 7.319375 7.3203125 6.96875 C4.903382 5.95966117 3.74291156 4.90890313 2 3 C1.34 2.67 0.68 2.34 0 2 C0 1.34 0 0.68 0 0 Z " fill="#E2E8D6" transform="translate(619,549)"/>
<path d="M0 0 C6.75 -0.125 6.75 -0.125 9 1 C9 3.97 9 6.94 9 10 C8.01 9.67 7.02 9.34 6 9 C6 8.34 6 7.68 6 7 C3.03 6.505 3.03 6.505 0 6 C3 4 3 4 6 4 C6 3.34 6 2.68 6 2 C3.69 2 1.38 2 -1 2 C-0.67 1.34 -0.34 0.68 0 0 Z " fill="#E6F6F3" transform="translate(580,959)"/>
<path d="M0 0 C0 0.33 0 0.66 0 1 C-0.69867187 1.04898438 -1.39734375 1.09796875 -2.1171875 1.1484375 C-3.02726563 1.22320313 -3.93734375 1.29796875 -4.875 1.375 C-5.77992188 1.44460938 -6.68484375 1.51421875 -7.6171875 1.5859375 C-10.17941903 1.79568132 -10.17941903 1.79568132 -12 4 C-12.33 4.99 -12.66 5.98 -13 7 C-12.34 7.33 -11.68 7.66 -11 8 C-12.65 8.33 -14.3 8.66 -16 9 C-18 6 -18 6 -18 3 C-11.92122066 -0.24201565 -6.81598387 -0.33278764 0 0 Z " fill="#405859" transform="translate(596,702)"/>
<path d="M0 0 C0.66 0.99 1.32 1.98 2 3 C0.96875 2.855625 -0.0625 2.71125 -1.125 2.5625 C-5.92777623 3.10474893 -6.94120689 4.45584177 -9.8359375 8.078125 C-11.03673941 10.06065701 -11.56891427 11.73429358 -12 14 C-12.66 14 -13.32 14 -14 14 C-14.34829914 10.37145077 -14.47013949 8.61251288 -12.20703125 5.6640625 C-11.41683594 4.99117188 -10.62664063 4.31828125 -9.8125 3.625 C-9.03519531 2.93664062 -8.25789062 2.24828125 -7.45703125 1.5390625 C-4.64987475 -0.21931534 -3.24934354 -0.57887465 0 0 Z " fill="#FCE0CB" transform="translate(632,492)"/>
<path d="M0 0 C0.33 0.66 0.66 1.32 1 2 C-0.25 4.625 -0.25 4.625 -2 7 C-2.99 7 -3.98 7 -5 7 C-5.1546875 7.9590625 -5.1546875 7.9590625 -5.3125 8.9375 C-5.539375 9.618125 -5.76625 10.29875 -6 11 C-6.99 11.33 -7.98 11.66 -9 12 C-10.20882096 14.00016466 -10.20882096 14.00016466 -11 16 C-11.99 15.67 -12.98 15.34 -14 15 C-12.23000902 13.06172464 -10.45904239 11.12435656 -8.6875 9.1875 C-8.18798828 8.64029297 -7.68847656 8.09308594 -7.17382812 7.52929688 C-4.83056872 4.96878163 -2.48855146 2.42060466 0 0 Z " fill="#E89D62" transform="translate(667,511)"/>
<path d="M0 0 C1.32 0.33 2.64 0.66 4 1 C4.625 2.875 4.625 2.875 5 5 C3 7 3 7 0.8359375 7.1953125 C-0.38222656 7.16050781 -0.38222656 7.16050781 -1.625 7.125 C-2.44226563 7.10695313 -3.25953125 7.08890625 -4.1015625 7.0703125 C-4.72804688 7.04710937 -5.35453125 7.02390625 -6 7 C-5 4 -5 4 -3 2.9375 C-2.34 2.628125 -1.68 2.31875 -1 2 C-0.67 1.34 -0.34 0.68 0 0 Z " fill="#213239" transform="translate(563,722)"/>
<path d="M0 0 C2 3.875 2 3.875 2 5 C-1.3 5.33 -4.6 5.66 -8 6 C-7.625 3.5625 -7.625 3.5625 -7 1 C-4.53721199 -0.231394 -2.7204945 -0.07159196 0 0 Z " fill="#1A2E34" transform="translate(591,703)"/>
<path d="M0 0 C1.98 0 3.96 0 6 0 C6 1.98 6 3.96 6 6 C3.625 6.625 3.625 6.625 1 7 C0.34 6.34 -0.32 5.68 -1 5 C-0.625 2.375 -0.625 2.375 0 0 Z " fill="#D3E8E2" transform="translate(515,961)"/>
<path d="M0 0 C0.33 1.32 0.66 2.64 1 4 C-2.3 4 -5.6 4 -9 4 C-8.67 2.68 -8.34 1.36 -8 0 C-5.13822943 -1.43088528 -3.06624227 -0.59991697 0 0 Z " fill="#C2D8DC" transform="translate(654,709)"/>
<path d="M0 0 C2.97 0.33 5.94 0.66 9 1 C9.66 2.98 10.32 4.96 11 7 C10.113125 6.319375 9.22625 5.63875 8.3125 4.9375 C5.26165391 2.76382701 5.26165391 2.76382701 2.375 3.0625 C-0.13741816 4.05424401 -1.94953577 5.25330825 -4 7 C-3.67 5.35 -3.34 3.7 -3 2 C-2.01 2 -1.02 2 0 2 C0 1.34 0 0.68 0 0 Z " fill="#E69459" transform="translate(674,471)"/>
<path d="M0 0 C5.28 0.33 10.56 0.66 16 1 C16 1.66 16 2.32 16 3 C14.7934375 2.9690625 14.7934375 2.9690625 13.5625 2.9375 C11.06645115 2.70366379 11.06645115 2.70366379 10 4 C7.32941149 4.14115161 4.67567762 4.04247107 2 4 C1.34 2.68 0.68 1.36 0 0 Z " fill="#C2D8D9" transform="translate(437,719)"/>
<path d="M0 0 C2 2 2 2 2 6 C3.32 6.66 4.64 7.32 6 8 C-0.27 8 -6.54 8 -13 8 C-13 7.67 -13 7.34 -13 7 C-9.7 7 -6.4 7 -3 7 C-3.33 6.01 -3.66 5.02 -4 4 C-3.01 4 -2.02 4 -1 4 C-0.67 2.68 -0.34 1.36 0 0 Z " fill="#182F33" transform="translate(450,710)"/>
<path d="M0 0 C0.66 0.33 1.32 0.66 2 1 C-1.29829545 6.74147727 -1.29829545 6.74147727 -4.375 7.875 C-7.25709249 8.0122425 -10.11521321 8.06708806 -13 8 C-10.33665788 6.22443858 -7.65774807 4.49913393 -4.9375 2.8125 C-4.05964844 2.26207031 -3.18179688 1.71164062 -2.27734375 1.14453125 C-1.52582031 0.76683594 -0.77429688 0.38914062 0 0 Z " fill="#E2D8BE" transform="translate(686,548)"/>
<path d="M0 0 C2.64 0 5.28 0 8 0 C8.66 1.32 9.32 2.64 10 4 C6.37 4 2.74 4 -1 4 C-0.67 2.68 -0.34 1.36 0 0 Z " fill="#CAE1E4" transform="translate(469,709)"/>
<path d="M0 0 C6.0546875 -0.1953125 6.0546875 -0.1953125 8 0 C10 2 10 2 10 5 C6.37 5 2.74 5 -1 5 C0.32 4.67 1.64 4.34 3 4 C3 3.34 3 2.68 3 2 C2.01 1.34 1.02 0.68 0 0 Z " fill="#B2CBCB" transform="translate(585,709)"/>
<path d="M0 0 C3.6041498 -0.02900455 7.20826962 -0.04680018 10.8125 -0.0625 C11.83666016 -0.07087891 12.86082031 -0.07925781 13.91601562 -0.08789062 C15.39038086 -0.09272461 15.39038086 -0.09272461 16.89453125 -0.09765625 C17.80050049 -0.10289307 18.70646973 -0.10812988 19.63989258 -0.11352539 C22 0 22 0 25 1 C25.33 1.99 25.66 2.98 26 4 C24.865625 3.690625 23.73125 3.38125 22.5625 3.0625 C15.17323386 1.38744128 7.5438973 1.32912526 0 1 C0 0.67 0 0.34 0 0 Z " fill="#E4D4B3" transform="translate(647,448)"/>
<path d="M0 0 C2.97 0 5.94 0 9 0 C9 0.66 9 1.32 9 2 C9.66 2.33 10.32 2.66 11 3 C8.04335481 4.4783226 5.25770263 4.06032783 2 4 C1.34 2.68 0.68 1.36 0 0 Z " fill="#CBE0E1" transform="translate(645,719)"/>
<path d="M0 0 C0 4.59784143 -2.69252628 7.43103153 -5.5625 10.875 C-7 12 -7 12 -10 12 C-8.52278578 8.54798361 -6.56205999 6.35038064 -3.875 3.75 C-3.15054688 3.04359375 -2.42609375 2.3371875 -1.6796875 1.609375 C-1.12539063 1.07828125 -0.57109375 0.5471875 0 0 Z " fill="#E8A06A" transform="translate(678,499)"/>
<path d="M0 0 C1.32 0 2.64 0 4 0 C4.33 0.66 4.66 1.32 5 2 C5.639375 2.28875 6.27875 2.5775 6.9375 2.875 C9.4635793 4.25286144 10.09845883 5.29537649 11 8 C10.67 8.99 10.34 9.98 10 11 C8.33035479 9.35718838 6.6643536 7.71067239 5 6.0625 C4.071875 5.14597656 3.14375 4.22945313 2.1875 3.28515625 C0 1 0 1 0 0 Z " fill="#47C3B1" transform="translate(581,358)"/>
<path d="M0 0 C0 0.99 0 1.98 0 3 C-3 4 -3 4 -4.8125 3.125 C-5.534375 2.75375 -6.25625 2.3825 -7 2 C-8.99110401 1.61709538 -10.99100513 1.27395385 -13 1 C-13 0.67 -13 0.34 -13 0 C-4.57142857 -2.57142857 -4.57142857 -2.57142857 0 0 Z " fill="#33484B" transform="translate(661,723)"/>
<path d="M0 0 C1.81618856 1.11903546 3.62785526 2.24541284 5.4375 3.375 C6.44683594 4.00148438 7.45617187 4.62796875 8.49609375 5.2734375 C11 7 11 7 12 9 C10.35 8.67 8.7 8.34 7 8 C7 7.34 7 6.68 7 6 C5.35 5.67 3.7 5.34 2 5 C1.67 5.66 1.34 6.32 1 7 C0 6 0 6 -0.0625 2.9375 C-0.041875 1.968125 -0.02125 0.99875 0 0 Z " fill="#37BAA4" transform="translate(609,555)"/>
<path d="M0 0 C0.33 0 0.66 0 1 0 C1.13277344 1.14597656 1.26554688 2.29195313 1.40234375 3.47265625 C1.58068188 5.00260968 1.75906996 6.53255729 1.9375 8.0625 C2.02451172 8.81466797 2.11152344 9.56683594 2.20117188 10.34179688 C2.73463639 14.90588219 3.32986298 19.45393534 4 24 C3.01 23.34 2.02 22.68 1 22 C-0.31367316 14.71508521 -0.10268609 7.38198858 0 0 Z " fill="#E5DEC8" transform="translate(596,498)"/>
<path d="M0 0 C1.32 0 2.64 0 4 0 C4 0.66 4 1.32 4 2 C5.98 2 7.96 2 10 2 C10 2.99 10 3.98 10 5 C7.625 5.625 7.625 5.625 5 6 C4.34 5.34 3.68 4.68 3 4 C0.89179203 4.3185177 0.89179203 4.3185177 -1 5 C-0.01 4.01 0.98 3.02 2 2 C1.34 1.34 0.68 0.68 0 0 Z " fill="#D6EEEA" transform="translate(456,955)"/>
<path d="M0 0 C0.6875 1.8125 0.6875 1.8125 1 4 C-0.1875 5.3125 -0.1875 5.3125 -2 7 C-2.66793384 8.19625855 -3.31189804 9.40606919 -3.9375 10.625 C-6 14 -6 14 -8.25 14.9375 C-8.8275 14.958125 -9.405 14.97875 -10 15 C-8.25 11.125 -8.25 11.125 -6 10 C-4.95355934 8.36209288 -3.9601817 6.68991979 -3 5 C-2 3.33333333 -1 1.66666667 0 0 Z " fill="#E6D2B1" transform="translate(703,528)"/>
<path d="M0 0 C2.375 0.1875 2.375 0.1875 5 1 C6.3125 3.5625 6.3125 3.5625 7 6 C7.99 6 8.98 6 10 6 C10.33 7.65 10.66 9.3 11 11 C6.86378916 7.6189962 3.18683431 4.33409466 0 0 Z " fill="#E4DBC3" transform="translate(688,460)"/>
<path d="M0 0 C1.65 0 3.3 0 5 0 C5 1.32 5 2.64 5 4 C5.66 4.33 6.32 4.66 7 5 C4.24921116 5.91692961 2.64051087 6.10886083 -0.1875 6.0625 C-2.0746875 6.0315625 -2.0746875 6.0315625 -4 6 C-3.01 5.34 -2.02 4.68 -1 4 C-0.34 3.34 0.32 2.68 1 2 C0.67 1.34 0.34 0.68 0 0 Z " fill="#374E51" transform="translate(586,724)"/>
<path d="M0 0 C0.66 0.33 1.32 0.66 2 1 C0.35 6.61 -1.3 12.22 -3 18 C-3.33 18 -3.66 18 -4 18 C-3.40546697 5.33029613 -3.40546697 5.33029613 0 0 Z " fill="#E6E3CF" transform="translate(601,478)"/>
<path d="M0 0 C-1.28716647 1.00578589 -2.57988658 2.00446798 -3.875 3 C-4.95394531 3.8353125 -4.95394531 3.8353125 -6.0546875 4.6875 C-8 6 -8 6 -10 6 C-10.33 6.66 -10.66 7.32 -11 8 C-11 6.68 -11 5.36 -11 4 C-10.34 4 -9.68 4 -9 4 C-8.67 3.01 -8.34 2.02 -8 1 C-4.68510482 -0.74468167 -3.63361056 -1.21120352 0 0 Z " fill="#E4E4D5" transform="translate(625,456)"/>
<path d="M0 0 C5.94 0 11.88 0 18 0 C18 0.33 18 0.66 18 1 C12.72 1 7.44 1 2 1 C2 2.32 2 3.64 2 5 C1.01 4.67 0.02 4.34 -1 4 C-0.67 2.68 -0.34 1.36 0 0 Z " fill="#2B4144" transform="translate(449,551)"/>
<path d="M0 0 C0.33 1.32 0.66 2.64 1 4 C-1.31 5.98 -3.62 7.96 -6 10 C-6.66 9.67 -7.32 9.34 -8 9 C-5.36 6.03 -2.72 3.06 0 0 Z " fill="#E99E66" transform="translate(689,487)"/>
<path d="M0 0 C0.99 0.33 1.98 0.66 3 1 C3 1.66 3 2.32 3 3 C8.61 3.33 14.22 3.66 20 4 C20 4.33 20 4.66 20 5 C13.73 5 7.46 5 1 5 C0.67 3.35 0.34 1.7 0 0 Z " fill="#3B5254" transform="translate(448,486)"/>
<path d="M0 0 C0.66 0 1.32 0 2 0 C3.42857143 8.57142857 3.42857143 8.57142857 1 12 C0.67 12 0.34 12 0 12 C0 8.04 0 4.08 0 0 Z " fill="#CEE6E0" transform="translate(509,956)"/>
<path d="M0 0 C1.32 0 2.64 0 4 0 C4 1.65 4 3.3 4 5 C2.68 4.34 1.36 3.68 0 3 C0 4.65 0 6.3 0 8 C0.99 8.33 1.98 8.66 3 9 C1.35 9.33 -0.3 9.66 -2 10 C-1.34 6.7 -0.68 3.4 0 0 Z " fill="#EAF8F7" transform="translate(547,955)"/>
<path d="M0 0 C3.63 0 7.26 0 11 0 C11 0.66 11 1.32 11 2 C7.95699684 3.52150158 5.345915 3.23899393 2 3 C1.34 2.01 0.68 1.02 0 0 Z " fill="#C9DEE0" transform="translate(468,720)"/>
<path d="M0 0 C0.33 0 0.66 0 1 0 C1.125 2.875 1.125 2.875 1 6 C-1 8 -1 8 -3.625 8.125 C-4.40875 8.08375 -5.1925 8.0425 -6 8 C-5.67 7.01 -5.34 6.02 -5 5 C-2.4375 3.8125 -2.4375 3.8125 0 3 C0 2.01 0 1.02 0 0 Z " fill="#CDE8E1" transform="translate(538,968)"/>
<path d="M0 0 C2.46645256 2.46645256 2.92087652 3.51856674 3 7 C1.54412676 9.29165233 -0.10985084 11.01764844 -2 13 C-2.66 12.67 -3.32 12.34 -4 12 C-3.525625 11.505 -3.05125 11.01 -2.5625 10.5 C-0.37832093 7.00531349 -0.34086089 4.09033064 0 0 Z " fill="#A4BEBC" transform="translate(392,715)"/>
<path d="M0 0 C2.475 0.99 2.475 0.99 5 2 C3.68 3.65 2.36 5.3 1 7 C1.33 7.66 1.66 8.32 2 9 C1.01 8.67 0.02 8.34 -1 8 C-1.8125 6.1875 -1.8125 6.1875 -2 4 C-1.0625 1.75 -1.0625 1.75 0 0 Z " fill="#3A5154" transform="translate(513,718)"/>
<path d="M0 0 C1.67542976 0.28604898 3.34385343 0.61781233 5 1 C5.33 2.32 5.66 3.64 6 5 C5.01 5.495 5.01 5.495 4 6 C3.67 5.34 3.34 4.68 3 4 C1.35 4.33 -0.3 4.66 -2 5 C-1.125 1.125 -1.125 1.125 0 0 Z " fill="#3C5556" transform="translate(628,720)"/>
<path d="M0 0 C0.66 0.33 1.32 0.66 2 1 C1.67 2.32 1.34 3.64 1 5 C-0.98 5.33 -2.96 5.66 -5 6 C-5.33 4.68 -5.66 3.36 -6 2 C-5.01 2.33 -4.02 2.66 -3 3 C-2.01 2.01 -1.02 1.02 0 0 Z " fill="#2D4747" transform="translate(632,706)"/>
<path d="M0 0 C0.99 0 1.98 0 3 0 C3.33 1.65 3.66 3.3 4 5 C0.04 5 -3.92 5 -8 5 C-8 4.67 -8 4.34 -8 4 C-3.545 3.505 -3.545 3.505 1 3 C0.67 2.01 0.34 1.02 0 0 Z " fill="#ECF9F7" transform="translate(552,963)"/>
<path d="M0 0 C2.38564077 0.57584432 4.66682784 1.22227595 7 2 C7 2.66 7 3.32 7 4 C4.69 4.33 2.38 4.66 0 5 C0 3.35 0 1.7 0 0 Z " fill="#22363B" transform="translate(651,724)"/>
<path d="M0 0 C0.33 0 0.66 0 1 0 C1 2.97 1 5.94 1 9 C-0.32 8.34 -1.64 7.68 -3 7 C-3 5.02 -3 3.04 -3 1 C-2.01 1.495 -2.01 1.495 -1 2 C-0.67 1.34 -0.34 0.68 0 0 Z " fill="#A1B8B9" transform="translate(459,712)"/>
<path d="M0 0 C0.66 0 1.32 0 2 0 C1.67 1.98 1.34 3.96 1 6 C0.01 6.33 -0.98 6.66 -2 7 C-2.66 6.34 -3.32 5.68 -4 5 C-3.67 4.34 -3.34 3.68 -3 3 C-2.34 3 -1.68 3 -1 3 C-0.67 2.01 -0.34 1.02 0 0 Z " fill="#2E4545" transform="translate(389,695)"/>
<path d="M0 0 C2.125 0.375 2.125 0.375 4 1 C3.01 1 2.02 1 1 1 C0.9175 1.78375 0.835 2.5675 0.75 3.375 C0 6 0 6 -2.0625 7.3125 C-2.701875 7.539375 -3.34125 7.76625 -4 8 C-2.25 2.25 -2.25 2.25 0 0 Z " fill="#FCE8D5" transform="translate(675,473)"/>
<path d="M0 0 C0.515625 0.37125 1.03125 0.7425 1.5625 1.125 C-0.0875 2.445 -1.7375 3.765 -3.4375 5.125 C-3.7675 4.465 -4.0975 3.805 -4.4375 3.125 C-6.96483235 2.46944881 -6.96483235 2.46944881 -9.4375 2.125 C-9.4375 1.795 -9.4375 1.465 -9.4375 1.125 C-3.0375 -1.09038462 -3.0375 -1.09038462 0 0 Z " fill="#3B5255" transform="translate(450.4375,721.875)"/>
<path d="M0 0 C-0.33 0.99 -0.66 1.98 -1 3 C-2.98 3.33 -4.96 3.66 -7 4 C-7 3.34 -7 2.68 -7 2 C-7.66 1.67 -8.32 1.34 -9 1 C-5.8035914 -0.06546953 -3.34252724 -0.07427838 0 0 Z " fill="#C6DEDE" transform="translate(589,710)"/>
<path d="M0 0 C2.31 0 4.62 0 7 0 C6.67 1.32 6.34 2.64 6 4 C3.03 3.505 3.03 3.505 0 3 C0 2.01 0 1.02 0 0 Z " fill="#293F41" transform="translate(569,421)"/>
<path d="M0 0 C0.66 0.33 1.32 0.66 2 1 C1.67 2.65 1.34 4.3 1 6 C-1.97 6 -4.94 6 -8 6 C-8 5.67 -8 5.34 -8 5 C-6.576875 4.87625 -6.576875 4.87625 -5.125 4.75 C-1.89538209 4.34925077 -1.89538209 4.34925077 -0.625 1.9375 C-0.41875 1.298125 -0.2125 0.65875 0 0 Z " fill="#9BB4B5" transform="translate(529,717)"/>
<path d="M0 0 C1.65 0.33 3.3 0.66 5 1 C5 1.99 5 2.98 5 4 C3.35 4 1.7 4 0 4 C0 2.68 0 1.36 0 0 Z " fill="#2A4243" transform="translate(492,486)"/>
<path d="M0 0 C0.75 1.5625 0.75 1.5625 1 4 C-0.13084437 6.50286409 -1.52139516 8.67007722 -3 11 C-3.75 9.4375 -3.75 9.4375 -4 7 C-2.86915563 4.49713591 -1.47860484 2.32992278 0 0 Z " fill="#DEA571" transform="translate(605,475)"/>
<path d="M0 0 C-1.62249941 0.83819158 -3.24808497 1.6704116 -4.875 2.5 C-6.23238281 3.19609375 -6.23238281 3.19609375 -7.6171875 3.90625 C-10 5 -10 5 -12 5 C-11 2 -11 2 -9.2578125 1.015625 C-8.55398438 0.76296875 -7.85015625 0.5103125 -7.125 0.25 C-6.07699219 -0.14445312 -6.07699219 -0.14445312 -5.0078125 -0.546875 C-3 -1 -3 -1 0 0 Z " fill="#38BCA7" transform="translate(633,440)"/>
<path d="M0 0 C0.66 0 1.32 0 2 0 C2 0.66 2 1.32 2 2 C3.32 2.33 4.64 2.66 6 3 C4.88625 3.309375 3.7725 3.61875 2.625 3.9375 C-0.7945155 4.82326483 -0.7945155 4.82326483 -3 6 C-2.42655063 3.13275314 -2.1385485 2.1385485 0 0 Z " fill="#334A4F" transform="translate(555,706)"/>
<path d="M0 0 C1.32 0.66 2.64 1.32 4 2 C-2.75 6 -2.75 6 -5 6 C-5 5.34 -5 4.68 -5 4 C-4.01 3.67 -3.02 3.34 -2 3 C-1.34 2.01 -0.68 1.02 0 0 Z " fill="#E1914B" transform="translate(679,549)"/>
<path d="M0 0 C2.475 0.99 2.475 0.99 5 2 C4.67 3.32 4.34 4.64 4 6 C2.02 4.68 0.04 3.36 -2 2 C-1.34 1.34 -0.68 0.68 0 0 Z " fill="#395151" transform="translate(479,721)"/>
<path d="M0 0 C0 3 0 3 -2 5.1875 C-2.66 5.785625 -3.32 6.38375 -4 7 C-4.66 6.67 -5.32 6.34 -6 6 C-3.375 1.125 -3.375 1.125 0 0 Z " fill="#E9924C" transform="translate(683,496)"/>
<path d="M0 0 C1.98 0.66 3.96 1.32 6 2 C6.33 3.65 6.66 5.3 7 7 C5.83040013 6.02433888 4.66438823 5.044375 3.5 4.0625 C2.8503125 3.51722656 2.200625 2.97195313 1.53125 2.41015625 C1.0259375 1.94480469 0.520625 1.47945313 0 1 C0 0.67 0 0.34 0 0 Z " fill="#4CC6B3" transform="translate(594,371)"/>
<path d="M0 0 C1.98 0.99 1.98 0.99 4 2 C4 2.99 4 3.98 4 5 C2.68 5 1.36 5 0 5 C0 3.35 0 1.7 0 0 Z " fill="#D6E5E2" transform="translate(547,958)"/>
<path d="M0 0 C0.99 0.66 1.98 1.32 3 2 C3 2.66 3 3.32 3 4 C1.02 4.33 -0.96 4.66 -3 5 C-3 4.34 -3 3.68 -3 3 C-2.34 3 -1.68 3 -1 3 C-0.67 2.01 -0.34 1.02 0 0 Z " fill="#203537" transform="translate(585,724)"/>
<path d="M0 0 C0.33 0.66 0.66 1.32 1 2 C1.66 2.33 2.32 2.66 3 3 C2.34 3.66 1.68 4.32 1 5 C-1.125 4.625 -1.125 4.625 -3 4 C-3 3.01 -3 2.02 -3 1 C-2.01 0.67 -1.02 0.34 0 0 Z " fill="#22393D" transform="translate(368,721)"/>
<path d="M0 0 C0.763125 0.061875 1.52625 0.12375 2.3125 0.1875 C2.6425 0.8475 2.9725 1.5075 3.3125 2.1875 C-1.1425 2.6825 -1.1425 2.6825 -5.6875 3.1875 C-2.6875 0.1875 -2.6875 0.1875 0 0 Z " fill="#223439" transform="translate(588.6875,702.8125)"/>
<path d="M0 0 C0.99 0.33 1.98 0.66 3 1 C0.525 4.465 0.525 4.465 -2 8 C-2.33 6.68 -2.66 5.36 -3 4 C-2.34 4 -1.68 4 -1 4 C-0.67 2.68 -0.34 1.36 0 0 Z " fill="#E2EBD9" transform="translate(609,465)"/>
<path d="M0 0 C0.66 0.33 1.32 0.66 2 1 C1.67 1.99 1.34 2.98 1 4 C-0.98 4.33 -2.96 4.66 -5 5 C-4.34 4.67 -3.68 4.34 -3 4 C-3 3.34 -3 2.68 -3 2 C-2.01 1.34 -1.02 0.68 0 0 Z " fill="#E5A26B" transform="translate(618,460)"/>
<path d="M0 0 C1.8871875 0.061875 1.8871875 0.061875 3.8125 0.125 C2.25 1.6875 2.25 1.6875 -0.1875 3.125 C-3.9375 2.8125 -3.9375 2.8125 -7.1875 2.125 C-4.09861478 0.06574319 -3.47814073 -0.1140374 0 0 Z " fill="#E59C5E" transform="translate(638.1875,450.875)"/>
</svg>
